<svg class="animated" id="freepik_stories-international-beer-day" xmlns="http://www.w3.org/2000/svg" viewBox="0 0 500 500" version="1.1" xmlns:xlink="http://www.w3.org/1999/xlink" xmlns:svgjs="http://svgjs.com/svgjs"><style>svg#freepik_stories-international-beer-day:not(.animated) .animable {opacity: 0;}svg#freepik_stories-international-beer-day.animated #freepik--Bottles--inject-251 {animation: 3s Infinite  linear floating;animation-delay: 0s;}svg#freepik_stories-international-beer-day.animated #freepik--Glass--inject-251 {animation: 6s Infinite  linear shake;animation-delay: 0s;}            @keyframes floating {                0% {                    opacity: 1;                    transform: translateY(0px);                }                50% {                    transform: translateY(-10px);                }                100% {                    opacity: 1;                    transform: translateY(0px);                }            }                    @keyframes shake {                10%, 90% {                    transform: translate3d(-1px, 0, 0);                  }                  20%, 80% {                    transform: translate3d(2px, 0, 0);                  }                  30%, 50%, 70% {                    transform: translate3d(-4px, 0, 0);                  }                  40%, 60% {                    transform: translate3d(4px, 0, 0);                  }            }        .animator-hidden { display: none; }</style><g id="freepik--background-complete--inject-251" class="animable" style="transform-origin: 250px 249.98px;"><path d="M275,235.54q15.3-9.49,30.8-18.68c10.31-6.14,20.69-12.17,31.07-18.19s20.83-12,31.3-17.82,21-11.67,31.58-17.33Q384.49,173,369,182.2t-31.08,18.2c-10.4,6-20.82,11.95-31.3,17.81S285.63,229.88,275,235.54Z" style="fill: rgb(235, 235, 235); transform-origin: 337.375px 199.53px;" id="elgb7s4g54dpb" class="animable"></path><path d="M404.43,160.84a55.24,55.24,0,0,1,5.43-4c1.86-1.26,3.78-2.42,5.72-3.56s3.91-2.19,5.93-3.17a55.39,55.39,0,0,1,6.21-2.69,57,57,0,0,1-5.43,4c-1.86,1.26-3.78,2.42-5.71,3.55s-3.92,2.19-5.94,3.17A57,57,0,0,1,404.43,160.84Z" style="fill: rgb(235, 235, 235); transform-origin: 416.075px 154.13px;" id="el7kqksae4k6n" class="animable"></path><path d="M433.24,144.21a19.28,19.28,0,0,1,2.93-2.59,33.33,33.33,0,0,1,3.2-2.11,35.5,35.5,0,0,1,3.43-1.73,19.71,19.71,0,0,1,3.71-1.24,19.35,19.35,0,0,1-2.93,2.6,32.17,32.17,0,0,1-3.21,2.1,34.39,34.39,0,0,1-3.43,1.73A19.62,19.62,0,0,1,433.24,144.21Z" style="fill: rgb(235, 235, 235); transform-origin: 439.875px 140.375px;" id="elvhqy5hugzp" class="animable"></path><path d="M250,221.09q-.58-16.84-.78-33.68c-.16-11.22-.2-22.45-.22-33.68s.06-22.45.22-33.67.39-22.45.78-33.68q.58,16.85.78,33.68c.16,11.22.2,22.45.22,33.67s-.06,22.46-.22,33.68S250.39,209.86,250,221.09Z" style="fill: rgb(235, 235, 235); transform-origin: 250px 153.735px;" id="el6w73kg9xdbj" class="animable"></path><path d="M250,81.37a51.78,51.78,0,0,1-.78-6.28c-.16-2.1-.2-4.2-.22-6.29s.06-4.2.22-6.29a49.8,49.8,0,0,1,.78-6.29,49.8,49.8,0,0,1,.78,6.29c.16,2.09.2,4.19.22,6.29s-.06,4.19-.22,6.29A51.78,51.78,0,0,1,250,81.37Z" style="fill: rgb(235, 235, 235); transform-origin: 250px 68.795px;" id="elm5p0wjb6dm" class="animable"></path><path d="M250,50.27a17.75,17.75,0,0,1-.78-3.59A28.67,28.67,0,0,1,249,43.1a30.87,30.87,0,0,1,.21-3.59,17.69,17.69,0,0,1,.79-3.58,17.69,17.69,0,0,1,.79,3.58A30.87,30.87,0,0,1,251,43.1a28.67,28.67,0,0,1-.22,3.58A17.75,17.75,0,0,1,250,50.27Z" style="fill: rgb(235, 235, 235); transform-origin: 250px 43.1px;" id="el8f3ydrp82zi" class="animable"></path><path d="M225,235.54q-12.69-6.66-25.21-13.65c-8.35-4.64-16.65-9.38-24.93-14.14s-16.52-9.61-24.72-14.52-16.35-9.9-24.43-15q12.7,6.66,25.21,13.65c8.36,4.64,16.65,9.38,24.94,14.15s16.51,9.6,24.71,14.52S216.88,230.43,225,235.54Z" style="fill: rgb(235, 235, 235); transform-origin: 175.355px 206.885px;" id="elfykt1mdqt29" class="animable"></path><path d="M122,176.09a37.23,37.23,0,0,1-5-2c-1.62-.77-3.2-1.59-4.75-2.49s-3-1.85-4.52-2.86a35.62,35.62,0,0,1-4.25-3.36,38.73,38.73,0,0,1,5,2c1.61.77,3.2,1.59,4.74,2.49s3.05,1.85,4.53,2.87A37.33,37.33,0,0,1,122,176.09Z" style="fill: rgb(235, 235, 235); transform-origin: 112.74px 170.735px;" id="elndxa907lrrf" class="animable"></path><path d="M99.05,162.85a13.56,13.56,0,0,1-3-.85,22.48,22.48,0,0,1-2.75-1.33A21.58,21.58,0,0,1,90.74,159a13,13,0,0,1-2.25-2.21,13.4,13.4,0,0,1,3,.84,21.91,21.91,0,0,1,2.75,1.35,19.36,19.36,0,0,1,2.53,1.71A12.63,12.63,0,0,1,99.05,162.85Z" style="fill: rgb(235, 235, 235); transform-origin: 93.77px 159.82px;" id="elxx0n858b0se" class="animable"></path><path d="M225,264.45q-14.39,9-29,17.63c-9.71,5.79-19.48,11.48-29.25,17.15S147.12,310.48,137.25,316s-19.78,11-29.76,16.28q14.39-9,29-17.63c9.71-5.79,19.47-11.48,29.26-17.15s19.61-11.25,29.48-16.76S215,269.77,225,264.45Z" style="fill: rgb(235, 235, 235); transform-origin: 166.245px 298.365px;" id="ela11gk0eq4a4" class="animable"></path><path d="M103.12,334.8A51.79,51.79,0,0,1,98,338.64c-1.75,1.19-3.56,2.29-5.38,3.36s-3.68,2.06-5.59,3a51.12,51.12,0,0,1-5.88,2.5,50.85,50.85,0,0,1,5.1-3.85c1.75-1.19,3.55-2.28,5.37-3.35s3.69-2.06,5.6-3A51.68,51.68,0,0,1,103.12,334.8Z" style="fill: rgb(235, 235, 235); transform-origin: 92.135px 341.15px;" id="elf974jr1a19s" class="animable"></path><path d="M76,350.46a18.18,18.18,0,0,1-2.74,2.48A30.15,30.15,0,0,1,67,356.56a18.31,18.31,0,0,1-3.52,1.12,18.3,18.3,0,0,1,2.74-2.49,30,30,0,0,1,3-2,28,28,0,0,1,3.24-1.62A17.65,17.65,0,0,1,76,350.46Z" style="fill: rgb(235, 235, 235); transform-origin: 69.74px 354.07px;" id="elli9z4fug9oj" class="animable"></path><path d="M250,464.07q-.58-16.85-.78-33.68c-.16-11.22-.2-22.45-.22-33.68s.06-22.45.22-33.67.39-22.46.78-33.68q.58,16.83.78,33.68c.16,11.22.2,22.45.22,33.67s-.06,22.46-.22,33.68S250.39,452.84,250,464.07Z" style="fill: rgb(235, 235, 235); transform-origin: 250px 396.715px;" id="elfcm83h2upze" class="animable"></path><path d="M250,324.35a51.78,51.78,0,0,1-.78-6.28c-.16-2.1-.2-4.2-.22-6.29s.06-4.2.22-6.29a49.8,49.8,0,0,1,.78-6.29,49.8,49.8,0,0,1,.78,6.29c.16,2.09.2,4.19.22,6.29s-.06,4.19-.22,6.29A51.78,51.78,0,0,1,250,324.35Z" style="fill: rgb(235, 235, 235); transform-origin: 250px 311.775px;" id="eljjm0sdz6ea" class="animable"></path><path d="M250,293.25a17.75,17.75,0,0,1-.78-3.59,28.67,28.67,0,0,1-.22-3.58,30.87,30.87,0,0,1,.21-3.59,17.69,17.69,0,0,1,.79-3.58,17.69,17.69,0,0,1,.79,3.58,30.87,30.87,0,0,1,.21,3.59,28.67,28.67,0,0,1-.22,3.58A17.75,17.75,0,0,1,250,293.25Z" style="fill: rgb(235, 235, 235); transform-origin: 250px 286.08px;" id="el43scmd3r7kk" class="animable"></path><path d="M275,264.45q12.69,6.68,25.21,13.66c8.35,4.64,16.65,9.38,24.93,14.14s16.52,9.61,24.72,14.52,16.35,9.9,24.43,15q-12.7-6.66-25.21-13.65c-8.36-4.64-16.65-9.38-24.94-14.15s-16.51-9.61-24.71-14.52S283.12,269.57,275,264.45Z" style="fill: rgb(235, 235, 235); transform-origin: 324.645px 293.11px;" id="elmk00rn2oe1a" class="animable"></path><path d="M378,323.91a37.23,37.23,0,0,1,5,2c1.62.77,3.2,1.59,4.75,2.49s3,1.85,4.52,2.86a35.62,35.62,0,0,1,4.25,3.36,38.73,38.73,0,0,1-5-2c-1.61-.77-3.2-1.59-4.74-2.49s-3.05-1.85-4.53-2.87A37.33,37.33,0,0,1,378,323.91Z" style="fill: rgb(235, 235, 235); transform-origin: 387.26px 329.265px;" id="el8tlojuid4h9" class="animable"></path><path d="M401,337.15a13,13,0,0,1,3,.85,22.48,22.48,0,0,1,2.75,1.33,21.58,21.58,0,0,1,2.53,1.71,13,13,0,0,1,2.25,2.21,13.4,13.4,0,0,1-3-.84,21.91,21.91,0,0,1-2.75-1.35,19.36,19.36,0,0,1-2.53-1.71A12.63,12.63,0,0,1,401,337.15Z" style="fill: rgb(235, 235, 235); transform-origin: 406.265px 340.2px;" id="el2khiasi1gfq" class="animable"></path><path d="M309.48,250.63q16.74-.58,33.5-.78c11.17-.16,22.34-.2,33.5-.22s22.34.06,33.51.22,22.33.39,33.5.78q-16.75.59-33.5.78c-11.17.16-22.34.2-33.51.22s-22.33-.06-33.5-.22S320.64,251,309.48,250.63Z" style="fill: rgb(235, 235, 235); transform-origin: 376.485px 250.63px;" id="el68yvfyuvbls" class="animable"></path><path d="M279.54,250.63a49.41,49.41,0,0,1,6.25-.78c2.09-.16,4.18-.2,6.26-.22s4.17.06,6.26.22a48,48,0,0,1,6.26.78,51.71,51.71,0,0,1-6.26.78c-2.09.16-4.17.2-6.26.22s-4.17-.06-6.26-.22A51.3,51.3,0,0,1,279.54,250.63Z" style="fill: rgb(235, 235, 235); transform-origin: 292.055px 250.63px;" id="eljacq3kkuug" class="animable"></path><path d="M449.48,250.63a6.93,6.93,0,0,1,2.1-.79,10.61,10.61,0,0,1,4.2,0,6.89,6.89,0,0,1,2.11.79,6.61,6.61,0,0,1-2.11.78,10.13,10.13,0,0,1-4.2,0A7.18,7.18,0,0,1,449.48,250.63Z" style="fill: rgb(235, 235, 235); transform-origin: 453.685px 250.63px;" id="elypumlvo3smc" class="animable"></path><path d="M464.66,250.63a17.66,17.66,0,0,1,3.56-.79,30.45,30.45,0,0,1,7.14,0,17.66,17.66,0,0,1,3.56.79,17,17,0,0,1-3.56.78,29.08,29.08,0,0,1-7.14,0A18.33,18.33,0,0,1,464.66,250.63Z" style="fill: rgb(235, 235, 235); transform-origin: 471.79px 250.63px;" id="elwx33zozwee" class="animable"></path><path d="M278.7,201.54q7-13.26,14.31-26.34c4.86-8.73,9.82-17.4,14.8-26.07s10-17.27,15.17-25.84,10.33-17.11,15.66-25.56q-7,13.26-14.31,26.34c-4.85,8.73-9.81,17.4-14.79,26.06S299.49,167.41,294.36,176,284,193.08,278.7,201.54Z" style="fill: rgb(235, 235, 235); transform-origin: 308.67px 149.635px;" id="el26qkb3z7bb8" class="animable"></path><path d="M265.31,224.73a40.61,40.61,0,0,1,2.13-5.23c.8-1.69,1.67-3.35,2.6-5s1.93-3.19,3-4.74a38.69,38.69,0,0,1,3.48-4.45,40.61,40.61,0,0,1-2.13,5.23c-.8,1.69-1.67,3.35-2.6,5s-1.94,3.19-3,4.74A42,42,0,0,1,265.31,224.73Z" style="fill: rgb(235, 235, 235); transform-origin: 270.915px 215.02px;" id="eltbzm7lk6f7s" class="animable"></path><path d="M341.32,93.09a5.92,5.92,0,0,1,.26-2,8.46,8.46,0,0,1,.75-1.74,8.69,8.69,0,0,1,1.13-1.52,5.94,5.94,0,0,1,1.62-1.24,5.75,5.75,0,0,1-.26,2,8.23,8.23,0,0,1-1.88,3.25A6.09,6.09,0,0,1,341.32,93.09Z" style="fill: rgb(235, 235, 235); transform-origin: 343.201px 89.84px;" id="el3809xgktg0f" class="animable"></path><path d="M348.11,81.33a14.61,14.61,0,0,1,.91-3.16,24.62,24.62,0,0,1,1.41-2.87,23.14,23.14,0,0,1,1.78-2.65,14.13,14.13,0,0,1,2.28-2.37,14,14,0,0,1-.92,3.15,21.21,21.21,0,0,1-1.41,2.87A23.26,23.26,0,0,1,350.38,79,14.47,14.47,0,0,1,348.11,81.33Z" style="fill: rgb(235, 235, 235); transform-origin: 351.3px 75.805px;" id="el4of6d7yf9tq" class="animable"></path><path d="M220.81,198.18q-8.88-14.22-17.43-28.63c-5.72-9.59-11.34-19.24-16.94-28.9s-11.12-19.38-16.56-29.13S159.05,92,153.8,82.12q8.88,14.22,17.43,28.62c5.72,9.6,11.34,19.25,16.94,28.91s11.11,19.37,16.56,29.12S215.56,188.31,220.81,198.18Z" style="fill: rgb(235, 235, 235); transform-origin: 187.305px 140.15px;" id="elja5ltdom6j" class="animable"></path><path d="M235.78,224.1a47.14,47.14,0,0,1-3.81-5c-1.18-1.72-2.26-3.51-3.32-5.3s-2-3.64-2.94-5.53a49.81,49.81,0,0,1-2.45-5.81,49.24,49.24,0,0,1,3.81,5c1.18,1.73,2.26,3.51,3.31,5.31s2,3.64,2.94,5.53A50.45,50.45,0,0,1,235.78,224.1Z" style="fill: rgb(235, 235, 235); transform-origin: 229.52px 213.28px;" id="el9iwq0v718de" class="animable"></path><path d="M150.8,76.93a7,7,0,0,1-1.73-1.43,10.29,10.29,0,0,1-1.23-1.71,10.17,10.17,0,0,1-.87-1.93,7,7,0,0,1-.37-2.21,6.85,6.85,0,0,1,1.73,1.43,9.8,9.8,0,0,1,1.24,1.71,10.13,10.13,0,0,1,.86,1.93A7.11,7.11,0,0,1,150.8,76.93Z" style="fill: rgb(235, 235, 235); transform-origin: 148.7px 73.29px;" id="elcu1mp5iq7dc" class="animable"></path><path d="M143.22,63.79a17.89,17.89,0,0,1-2.47-2.7,30.69,30.69,0,0,1-2-3,28.72,28.72,0,0,1-1.59-3.19,18,18,0,0,1-1.11-3.49,17.38,17.38,0,0,1,2.47,2.7,30.69,30.69,0,0,1,2,3,29.78,29.78,0,0,1,1.59,3.2A17.9,17.9,0,0,1,143.22,63.79Z" style="fill: rgb(235, 235, 235); transform-origin: 139.635px 57.6px;" id="elrxrnxmhl88" class="animable"></path><path d="M190.52,249.37q-16.74.58-33.5.78c-11.17.16-22.33.2-33.5.22s-22.34-.06-33.51-.22-22.33-.39-33.5-.78q16.76-.59,33.5-.78c11.17-.16,22.34-.2,33.51-.22s22.33.06,33.5.22S179.36,249,190.52,249.37Z" style="fill: rgb(235, 235, 235); transform-origin: 123.515px 249.37px;" id="elxrdxuo4tqi8" class="animable"></path><path d="M220.46,249.37a49.41,49.41,0,0,1-6.25.78c-2.09.16-4.18.2-6.26.22s-4.17-.06-6.26-.22a48,48,0,0,1-6.26-.78,51.71,51.71,0,0,1,6.26-.78c2.09-.16,4.17-.2,6.26-.22s4.17.06,6.26.22A51.3,51.3,0,0,1,220.46,249.37Z" style="fill: rgb(235, 235, 235); transform-origin: 207.945px 249.37px;" id="el9eyaci14efq" class="animable"></path><path d="M50.52,249.37a6.65,6.65,0,0,1-2.1.78,10,10,0,0,1-2.1.22,10.68,10.68,0,0,1-2.1-.21,6.89,6.89,0,0,1-2.11-.79,6.61,6.61,0,0,1,2.11-.78,10.13,10.13,0,0,1,4.2,0A6.9,6.9,0,0,1,50.52,249.37Z" style="fill: rgb(235, 235, 235); transform-origin: 46.315px 249.37px;" id="elw43o6am6nd" class="animable"></path><path d="M35.34,249.37a17,17,0,0,1-3.56.78,28.51,28.51,0,0,1-3.57.22,30.53,30.53,0,0,1-3.57-.21,17.66,17.66,0,0,1-3.56-.79,17,17,0,0,1,3.56-.78,29.08,29.08,0,0,1,7.14,0A17.62,17.62,0,0,1,35.34,249.37Z" style="fill: rgb(235, 235, 235); transform-origin: 28.21px 249.37px;" id="el1p2gf1nzoar" class="animable"></path><path d="M218.5,303.3q-8.55,16-17.44,31.77c-5.9,10.54-11.91,21-17.93,31.49s-12.13,20.89-18.3,31.27-12.42,20.72-18.8,31q8.57-16,17.44-31.77t17.93-31.49c6.06-10.45,12.13-20.89,18.31-31.27S212.13,313.57,218.5,303.3Z" style="fill: rgb(235, 235, 235); transform-origin: 182.265px 366.065px;" id="elqfpszqbire9" class="animable"></path><path d="M234.69,275.27a58.93,58.93,0,0,1-2.71,6.25c-1,2-2.08,4-3.19,6s-2.31,3.87-3.58,5.75a57.3,57.3,0,0,1-4.06,5.47,57.2,57.2,0,0,1,2.71-6.25c1-2,2.08-4,3.19-6s2.31-3.88,3.58-5.75A57.74,57.74,0,0,1,234.69,275.27Z" style="fill: rgb(235, 235, 235); transform-origin: 227.92px 287.005px;" id="elhd4fx4weve" class="animable"></path><path d="M142.8,434.43a8.11,8.11,0,0,1-.46,2.36,11.44,11.44,0,0,1-1,2.07,12.06,12.06,0,0,1-1.32,1.86,8,8,0,0,1-1.82,1.58,7.67,7.67,0,0,1,.46-2.36,11.86,11.86,0,0,1,.95-2.08A12.35,12.35,0,0,1,141,436,8,8,0,0,1,142.8,434.43Z" style="fill: rgb(235, 235, 235); transform-origin: 140.5px 438.365px;" id="elmzt1pf6j81" class="animable"></path><path d="M134.59,448.64a20,20,0,0,1-1.26,3.73,33.3,33.3,0,0,1-3.85,6.68,20,20,0,0,1-2.6,2.95,19.23,19.23,0,0,1,1.25-3.73,32.75,32.75,0,0,1,1.74-3.45,33.86,33.86,0,0,1,2.12-3.23A20,20,0,0,1,134.59,448.64Z" style="fill: rgb(235, 235, 235); transform-origin: 130.735px 455.32px;" id="elgygvnxuuew" class="animable"></path><path d="M279.19,301.82q8.88,14.22,17.43,28.63c5.72,9.59,11.34,19.24,16.94,28.9s11.12,19.38,16.57,29.13S341,408,346.2,417.88q-8.88-14.22-17.43-28.62c-5.72-9.6-11.34-19.25-16.94-28.91S300.72,341,295.27,331.22,284.44,311.69,279.19,301.82Z" style="fill: rgb(235, 235, 235); transform-origin: 312.695px 359.85px;" id="elf5gx9m9p2ab" class="animable"></path><path d="M264.22,275.89a49.24,49.24,0,0,1,3.81,5c1.18,1.73,2.26,3.52,3.32,5.31s2,3.64,2.94,5.53a49.81,49.81,0,0,1,2.45,5.81,49.24,49.24,0,0,1-3.81-5c-1.18-1.73-2.26-3.51-3.31-5.31s-2-3.64-2.94-5.53A49.86,49.86,0,0,1,264.22,275.89Z" style="fill: rgb(235, 235, 235); transform-origin: 270.48px 286.715px;" id="eltxim6yxopq" class="animable"></path><path d="M349.2,423.07a7,7,0,0,1,1.73,1.43,10.29,10.29,0,0,1,1.23,1.71,9.9,9.9,0,0,1,.87,1.93,7,7,0,0,1,.37,2.21,6.85,6.85,0,0,1-1.73-1.43,9.8,9.8,0,0,1-1.24-1.71,10.13,10.13,0,0,1-.86-1.93A7.11,7.11,0,0,1,349.2,423.07Z" style="fill: rgb(235, 235, 235); transform-origin: 351.3px 426.71px;" id="el5kir0yd81r" class="animable"></path><path d="M356.79,436.21a18.36,18.36,0,0,1,2.46,2.7,30.69,30.69,0,0,1,2,3,28.72,28.72,0,0,1,1.59,3.19,18,18,0,0,1,1.11,3.49,17.38,17.38,0,0,1-2.47-2.7,30.69,30.69,0,0,1-2-3,29.78,29.78,0,0,1-1.59-3.2A17.22,17.22,0,0,1,356.79,436.21Z" style="fill: rgb(235, 235, 235); transform-origin: 360.37px 442.4px;" id="elsvbb8ronfr" class="animable"></path><path d="M270.44,229.56q9.74-10.55,19.72-20.82c6.64-6.87,13.37-13.65,20.11-20.42s13.56-13.47,20.42-20.12,13.79-13.23,20.82-19.71Q341.79,159,331.8,169.31t-20.12,20.42c-6.77,6.74-13.55,13.47-20.42,20.11S277.47,223.07,270.44,229.56Z" style="fill: rgb(235, 235, 235); transform-origin: 310.975px 189.025px;" id="elohrwki9fux" class="animable"></path><path d="M354.53,145.47a36.35,36.35,0,0,1,3.23-4.33q1.74-2.05,3.63-3.94c1.26-1.27,2.57-2.47,3.94-3.63a36,36,0,0,1,4.34-3.24,36,36,0,0,1-3.24,4.34c-1.16,1.37-2.36,2.68-3.63,3.94s-2.57,2.47-3.94,3.63A36.35,36.35,0,0,1,354.53,145.47Z" style="fill: rgb(235, 235, 235); transform-origin: 362.1px 137.9px;" id="elt7aoufwsnci" class="animable"></path><path d="M373.25,126.75a13,13,0,0,1,1.6-2.71,22.09,22.09,0,0,1,2-2.31,21,21,0,0,1,2.31-2,13,13,0,0,1,2.71-1.6,13,13,0,0,1-1.6,2.71,21,21,0,0,1-2,2.31,23.34,23.34,0,0,1-2.31,2A13,13,0,0,1,373.25,126.75Z" style="fill: rgb(235, 235, 235); transform-origin: 377.56px 122.44px;" id="elise32tscpij" class="animable"></path><path d="M242.52,222.08q-4.28-13.7-8.17-27.49c-2.63-9.19-5.14-18.41-7.63-27.63s-4.89-18.47-7.21-27.74-4.57-18.56-6.67-27.89Q217.12,125,221,138.81c2.62,9.19,5.14,18.41,7.63,27.63s4.88,18.48,7.2,27.75S240.42,212.75,242.52,222.08Z" style="fill: rgb(235, 235, 235); transform-origin: 227.68px 166.705px;" id="el742ilk6tnbj" class="animable"></path><path d="M211.74,107.22a38.57,38.57,0,0,1-2.14-5c-.6-1.69-1.14-3.39-1.6-5.12s-.85-3.46-1.17-5.22a36.61,36.61,0,0,1-.63-5.38,37.22,37.22,0,0,1,2.14,5c.6,1.69,1.14,3.39,1.6,5.12s.85,3.46,1.17,5.22A36.93,36.93,0,0,1,211.74,107.22Z" style="fill: rgb(235, 235, 235); transform-origin: 208.97px 96.86px;" id="eltmr6zi05et" class="animable"></path><path d="M204.89,81.64a13.15,13.15,0,0,1-1.55-2.74,23.52,23.52,0,0,1-1-2.89,21.48,21.48,0,0,1-.58-3,13.25,13.25,0,0,1,0-3.15,13.15,13.15,0,0,1,1.55,2.74,21.52,21.52,0,0,1,1.58,5.89A13.25,13.25,0,0,1,204.89,81.64Z" style="fill: rgb(235, 235, 235); transform-origin: 203.325px 75.75px;" id="elteae633tmy" class="animable"></path><path d="M222.08,242.52q-14-3.15-27.89-6.67c-9.27-2.32-18.51-4.75-27.75-7.2s-18.44-5-27.63-7.63-18.35-5.33-27.48-8.18q14,3.15,27.89,6.67c9.27,2.32,18.51,4.75,27.74,7.21s18.44,5,27.63,7.63S213,239.67,222.08,242.52Z" style="fill: rgb(235, 235, 235); transform-origin: 166.705px 227.68px;" id="elrknjqvq9gu" class="animable"></path><path d="M107.22,211.74a36.93,36.93,0,0,1-5.38-.63q-2.64-.48-5.22-1.17c-1.73-.46-3.43-1-5.12-1.6a37.22,37.22,0,0,1-5-2.14,36.61,36.61,0,0,1,5.38.63q2.64.48,5.22,1.17c1.73.46,3.43,1,5.12,1.6A38.57,38.57,0,0,1,107.22,211.74Z" style="fill: rgb(235, 235, 235); transform-origin: 96.86px 208.97px;" id="elfdtb7x87zh" class="animable"></path><path d="M81.64,204.89a13.25,13.25,0,0,1-3.15,0,21.52,21.52,0,0,1-5.89-1.58,13.15,13.15,0,0,1-2.74-1.55,13.25,13.25,0,0,1,3.15,0,21.48,21.48,0,0,1,3,.58,23.52,23.52,0,0,1,2.89,1A13.15,13.15,0,0,1,81.64,204.89Z" style="fill: rgb(235, 235, 235); transform-origin: 75.75px 203.325px;" id="elxswhnf3b7wb" class="animable"></path><path d="M229.56,270.44q-9.72,10.55-19.72,20.82c-6.64,6.87-13.37,13.65-20.11,20.42s-13.56,13.47-20.42,20.12S155.52,345,148.49,351.51q9.72-10.54,19.71-20.82t20.12-20.42c6.77-6.74,13.55-13.47,20.42-20.11S222.53,276.93,229.56,270.44Z" style="fill: rgb(235, 235, 235); transform-origin: 189.025px 310.975px;" id="el9hau9h9x2z" class="animable"></path><path d="M145.47,354.53a36.35,36.35,0,0,1-3.23,4.33q-1.74,2.06-3.63,3.94c-1.26,1.27-2.57,2.47-3.94,3.63a36,36,0,0,1-4.34,3.24,36,36,0,0,1,3.24-4.34c1.16-1.37,2.36-2.68,3.63-3.94s2.57-2.47,3.94-3.63A36.35,36.35,0,0,1,145.47,354.53Z" style="fill: rgb(235, 235, 235); transform-origin: 137.9px 362.1px;" id="elm924rl63q3h" class="animable"></path><path d="M126.75,373.25a13,13,0,0,1-1.6,2.71,22.09,22.09,0,0,1-2,2.31,21,21,0,0,1-2.31,2,13,13,0,0,1-2.71,1.6,13,13,0,0,1,1.6-2.71,21,21,0,0,1,2-2.31,22.09,22.09,0,0,1,2.31-2A13,13,0,0,1,126.75,373.25Z" style="fill: rgb(235, 235, 235); transform-origin: 122.44px 377.56px;" id="elqhgrzfi4r9i" class="animable"></path><path d="M257.48,277.92q4.27,13.69,8.17,27.49c2.63,9.19,5.14,18.41,7.63,27.63s4.89,18.47,7.21,27.74,4.57,18.56,6.67,27.89Q282.89,375,279,361.19c-2.62-9.19-5.14-18.41-7.63-27.63s-4.88-18.48-7.2-27.75S259.58,287.25,257.48,277.92Z" style="fill: rgb(235, 235, 235); transform-origin: 272.32px 333.295px;" id="el12qnuvpp2gpa" class="animable"></path><path d="M288.26,392.78a38.57,38.57,0,0,1,2.14,5c.6,1.69,1.14,3.39,1.6,5.12s.85,3.46,1.17,5.22a36.61,36.61,0,0,1,.63,5.38,37.22,37.22,0,0,1-2.14-5c-.6-1.69-1.14-3.39-1.6-5.12s-.85-3.46-1.17-5.22A36.93,36.93,0,0,1,288.26,392.78Z" style="fill: rgb(235, 235, 235); transform-origin: 291.03px 403.14px;" id="elmkkckk78q5m" class="animable"></path><path d="M295.11,418.36a13.15,13.15,0,0,1,1.55,2.74,23.52,23.52,0,0,1,1,2.89,21.48,21.48,0,0,1,.58,3,13.25,13.25,0,0,1,0,3.15,13.15,13.15,0,0,1-1.55-2.74,21.52,21.52,0,0,1-1.58-5.89A13.79,13.79,0,0,1,295.11,418.36Z" style="fill: rgb(235, 235, 235); transform-origin: 296.677px 424.25px;" id="el9u8hdg2r15j" class="animable"></path><path d="M277.92,257.48q14,3.15,27.89,6.67c9.27,2.32,18.51,4.75,27.75,7.2s18.44,5,27.63,7.63,18.35,5.33,27.48,8.18q-14-3.15-27.89-6.67c-9.27-2.32-18.51-4.75-27.74-7.21s-18.44-5-27.63-7.63S287.05,260.33,277.92,257.48Z" style="fill: rgb(235, 235, 235); transform-origin: 333.295px 272.32px;" id="el0ggiu6ledalh" class="animable"></path><path d="M392.78,288.26a36.93,36.93,0,0,1,5.38.63q2.64.48,5.22,1.17c1.73.46,3.43,1,5.12,1.6a37.22,37.22,0,0,1,5,2.14,36.61,36.61,0,0,1-5.38-.63q-2.64-.48-5.22-1.17c-1.73-.46-3.43-1-5.12-1.6A38.57,38.57,0,0,1,392.78,288.26Z" style="fill: rgb(235, 235, 235); transform-origin: 403.14px 291.03px;" id="elp1ib5gtxbm" class="animable"></path><path d="M418.36,295.11a13.79,13.79,0,0,1,3.15,0,21.52,21.52,0,0,1,5.89,1.58,13.15,13.15,0,0,1,2.74,1.55,13.25,13.25,0,0,1-3.15,0,21.48,21.48,0,0,1-3-.58,23.52,23.52,0,0,1-2.89-1A13.15,13.15,0,0,1,418.36,295.11Z" style="fill: rgb(235, 235, 235); transform-origin: 424.25px 296.677px;" id="elo6p1ca4ot9p" class="animable"></path><path d="M301.09,237Q313.48,233,326,229.49c8.31-2.39,16.66-4.67,25-6.93s16.73-4.42,25.13-6.5,16.81-4.1,25.26-6Q389,214,376.5,217.56c-8.32,2.4-16.66,4.68-25,6.93s-16.73,4.42-25.13,6.5S309.55,235.09,301.09,237Z" style="fill: rgb(235, 235, 235); transform-origin: 351.24px 223.53px;" id="elbyc5p3afdm4" class="animable"></path><path d="M278.69,243a30.69,30.69,0,0,1,4.48-2c1.53-.56,3.07-1.06,4.63-1.47a47.65,47.65,0,0,1,4.74-1,30.11,30.11,0,0,1,4.88-.51,30.28,30.28,0,0,1-4.48,2c-1.52.56-3.06,1.06-4.62,1.47s-3.14.76-4.74,1A31.53,31.53,0,0,1,278.69,243Z" style="fill: rgb(235, 235, 235); transform-origin: 288.055px 240.51px;" id="el1eoav4gyc6w" class="animable"></path><path d="M405.85,208.89a4.69,4.69,0,0,1,1.37-1.18,6.62,6.62,0,0,1,1.51-.63,6.34,6.34,0,0,1,1.63-.21,4.59,4.59,0,0,1,1.78.34,5,5,0,0,1-1.37,1.18,6,6,0,0,1-1.52.62,6.34,6.34,0,0,1-1.63.22A4.9,4.9,0,0,1,405.85,208.89Z" style="fill: rgb(235, 235, 235); transform-origin: 408.995px 208.05px;" id="elwv7498d5auj" class="animable"></path><path d="M417.2,205.85a11,11,0,0,1,2.47-1.47,17.64,17.64,0,0,1,2.61-.93,17.86,17.86,0,0,1,2.72-.51,11.08,11.08,0,0,1,2.87.05,11,11,0,0,1-2.46,1.47,16.52,16.52,0,0,1-2.61.92,17.76,17.76,0,0,1-2.73.51A11.07,11.07,0,0,1,417.2,205.85Z" style="fill: rgb(235, 235, 235); transform-origin: 422.535px 204.417px;" id="el71gy2hm8x7h" class="animable"></path><path d="M266,192.71q3.78-16.32,7.92-32.56c2.74-10.83,5.59-21.63,8.46-32.42s5.84-21.56,8.88-32.3,6.16-21.48,9.43-32.17q-3.78,16.34-7.92,32.57c-2.74,10.83-5.59,21.63-8.46,32.42s-5.84,21.56-8.89,32.3S269.26,182,266,192.71Z" style="fill: rgb(235, 235, 235); transform-origin: 283.345px 127.985px;" id="elhm06h1cjg6" class="animable"></path><path d="M258.25,221.63a49.57,49.57,0,0,1,.87-6.24c.39-2.06.89-4.09,1.41-6.1s1.13-4,1.83-6a48.91,48.91,0,0,1,2.37-5.84,49.57,49.57,0,0,1-.87,6.24c-.38,2.06-.88,4.08-1.4,6.1s-1.14,4-1.84,6A49.6,49.6,0,0,1,258.25,221.63Z" style="fill: rgb(235, 235, 235); transform-origin: 261.49px 209.54px;" id="elklut5xpycej" class="animable"></path><path d="M302.24,57.48a7.25,7.25,0,0,1-.22-2.23,10.36,10.36,0,0,1,.34-2.09,10,10,0,0,1,.75-2,6.91,6.91,0,0,1,1.3-1.83,6.69,6.69,0,0,1,.22,2.23,10.36,10.36,0,0,1-.34,2.09,10.49,10.49,0,0,1-.75,2A7.15,7.15,0,0,1,302.24,57.48Z" style="fill: rgb(235, 235, 235); transform-origin: 303.327px 53.405px;" id="elero326zpca" class="animable"></path><path d="M306.16,42.82a18.36,18.36,0,0,1,.17-3.65,31.9,31.9,0,0,1,.71-3.5,29.29,29.29,0,0,1,1.13-3.39A17.28,17.28,0,0,1,309.86,29a17.64,17.64,0,0,1-.17,3.65,27.46,27.46,0,0,1-.71,3.5,29.34,29.34,0,0,1-1.14,3.39A17.84,17.84,0,0,1,306.16,42.82Z" style="fill: rgb(235, 235, 235); transform-origin: 308.011px 35.91px;" id="elfmv09ld93eg" class="animable"></path><path d="M208.39,207.5q-12.25-11.43-24.24-23.14T160.3,160.83Q148.48,149,136.76,137t-23.13-24.24q12.25,11.43,24.24,23.14c8,7.78,15.93,15.65,23.84,23.53s15.75,15.84,23.54,23.85S200.77,199.33,208.39,207.5Z" style="fill: rgb(235, 235, 235); transform-origin: 161.01px 160.13px;" id="elia8r9xvpe6e" class="animable"></path><path d="M229.56,228.67a48.44,48.44,0,0,1-5-3.88c-1.58-1.36-3.09-2.8-4.58-4.26s-2.9-3-4.27-4.58a49.78,49.78,0,0,1-3.87-5,49.78,49.78,0,0,1,5,3.87c1.58,1.37,3.09,2.81,4.58,4.27s2.9,3,4.26,4.58A49.87,49.87,0,0,1,229.56,228.67Z" style="fill: rgb(235, 235, 235); transform-origin: 220.7px 219.81px;" id="elnl1tc7uu0s" class="animable"></path><path d="M109.39,108.5a7.07,7.07,0,0,1-2-.93,10.17,10.17,0,0,1-3-3,6.81,6.81,0,0,1-.93-2,6.81,6.81,0,0,1,2,.93,10.17,10.17,0,0,1,3,3A7.07,7.07,0,0,1,109.39,108.5Z" style="fill: rgb(235, 235, 235); transform-origin: 106.425px 105.535px;" id="el24rm1nd0q8z" class="animable"></path><path d="M98.66,97.77a18,18,0,0,1-3.08-2,28.61,28.61,0,0,1-2.67-2.37,27.39,27.39,0,0,1-2.37-2.67,17.59,17.59,0,0,1-2-3.08,17.59,17.59,0,0,1,3.08,2,30,30,0,0,1,5,5A18,18,0,0,1,98.66,97.77Z" style="fill: rgb(235, 235, 235); transform-origin: 93.6px 92.71px;" id="elvbdstjh4e" class="animable"></path><path d="M192.39,264.79q-16,4.89-32.16,9.42c-10.75,3-21.52,6-32.31,8.88s-21.59,5.73-32.42,8.46S73.83,297,62.94,299.47q16-4.89,32.16-9.42c10.75-3.05,21.52-6,32.31-8.89s21.59-5.72,32.42-8.45S181.5,267.3,192.39,264.79Z" style="fill: rgb(235, 235, 235); transform-origin: 127.665px 282.13px;" id="elisc8w34cnu" class="animable"></path><path d="M221.31,257a49.74,49.74,0,0,1-5.85,2.37c-2,.69-4,1.27-6,1.83s-4,1-6.1,1.41a50,50,0,0,1-6.25.87,48.67,48.67,0,0,1,5.84-2.38c2-.69,4-1.27,6-1.83s4-1,6.1-1.4A49.47,49.47,0,0,1,221.31,257Z" style="fill: rgb(235, 235, 235); transform-origin: 209.21px 260.24px;" id="elfk6g2knkjb8" class="animable"></path><path d="M57.15,301a6.65,6.65,0,0,1-1.82,1.3,10.36,10.36,0,0,1-2,.76,10.26,10.26,0,0,1-2.08.33A7,7,0,0,1,49,303.2a7.13,7.13,0,0,1,1.83-1.31,10.33,10.33,0,0,1,4.06-1.08A6.91,6.91,0,0,1,57.15,301Z" style="fill: rgb(235, 235, 235); transform-origin: 53.075px 302.099px;" id="ela0h8uuilwci" class="animable"></path><path d="M42.49,305a17.51,17.51,0,0,1-3.24,1.68,29.29,29.29,0,0,1-3.39,1.13,28.94,28.94,0,0,1-3.5.72,17.55,17.55,0,0,1-3.64.16A17.51,17.51,0,0,1,32,307a29.29,29.29,0,0,1,3.39-1.13,27.12,27.12,0,0,1,3.5-.71A17.57,17.57,0,0,1,42.49,305Z" style="fill: rgb(235, 235, 235); transform-origin: 35.605px 306.846px;" id="elsafu9apzl2k" class="animable"></path><path d="M234,307.29q-3.78,16.32-7.92,32.56c-2.74,10.83-5.59,21.63-8.46,32.42s-5.84,21.56-8.88,32.3-6.16,21.48-9.43,32.16q3.78-16.32,7.92-32.56c2.74-10.83,5.59-21.63,8.46-32.42s5.84-21.56,8.89-32.3S230.74,318,234,307.29Z" style="fill: rgb(235, 235, 235); transform-origin: 216.655px 372.01px;" id="elbv1r76yun8g" class="animable"></path><path d="M241.75,278.37a49.57,49.57,0,0,1-.87,6.24c-.39,2.06-.88,4.09-1.41,6.1s-1.13,4-1.83,6a48.91,48.91,0,0,1-2.37,5.84,49.57,49.57,0,0,1,.87-6.24c.38-2.06.88-4.08,1.4-6.1s1.14-4,1.84-6A49.6,49.6,0,0,1,241.75,278.37Z" style="fill: rgb(235, 235, 235); transform-origin: 238.51px 290.46px;" id="elrod2okgd13g" class="animable"></path><path d="M197.76,442.52a7.22,7.22,0,0,1,.22,2.23,10.36,10.36,0,0,1-.34,2.09,10.24,10.24,0,0,1-.75,2,6.91,6.91,0,0,1-1.3,1.83,6.69,6.69,0,0,1-.22-2.23,10.36,10.36,0,0,1,.34-2.09,10.24,10.24,0,0,1,.75-2A7.15,7.15,0,0,1,197.76,442.52Z" style="fill: rgb(235, 235, 235); transform-origin: 196.673px 446.595px;" id="elgdxtic6x2as" class="animable"></path><path d="M193.84,457.18a18.36,18.36,0,0,1-.17,3.65,31.9,31.9,0,0,1-.71,3.5,29.29,29.29,0,0,1-1.13,3.39,17.28,17.28,0,0,1-1.69,3.24,17.64,17.64,0,0,1,.17-3.65,27.46,27.46,0,0,1,.71-3.5,29.34,29.34,0,0,1,1.14-3.39A17.84,17.84,0,0,1,193.84,457.18Z" style="fill: rgb(235, 235, 235); transform-origin: 191.989px 464.07px;" id="els9b7xe9swsd" class="animable"></path><path d="M291.61,292.5q12.25,11.43,24.24,23.14c8,7.78,15.94,15.65,23.85,23.53S355.45,355,363.24,363s15.51,16.07,23.13,24.24q-12.25-11.43-24.24-23.14c-8-7.78-15.93-15.65-23.84-23.53s-15.75-15.84-23.54-23.85S299.23,300.67,291.61,292.5Z" style="fill: rgb(235, 235, 235); transform-origin: 338.99px 339.87px;" id="eljib0f8k0s6h" class="animable"></path><path d="M270.44,271.33a48.44,48.44,0,0,1,5,3.88c1.58,1.36,3.09,2.8,4.58,4.26s2.9,3,4.27,4.58a49.78,49.78,0,0,1,3.87,5,49.78,49.78,0,0,1-5-3.87c-1.58-1.37-3.09-2.81-4.58-4.27s-2.9-3-4.26-4.59A48.62,48.62,0,0,1,270.44,271.33Z" style="fill: rgb(235, 235, 235); transform-origin: 279.3px 280.19px;" id="eliikypp3hfn" class="animable"></path><path d="M390.61,391.5a7.07,7.07,0,0,1,2,.93,10.17,10.17,0,0,1,3,3,6.81,6.81,0,0,1,.93,2,6.81,6.81,0,0,1-2-.93,10.17,10.17,0,0,1-3-3A7.07,7.07,0,0,1,390.61,391.5Z" style="fill: rgb(235, 235, 235); transform-origin: 393.575px 394.465px;" id="elhr95wr250wl" class="animable"></path><path d="M401.34,402.23a18,18,0,0,1,3.08,2,28.61,28.61,0,0,1,2.67,2.37,27.39,27.39,0,0,1,2.37,2.67,17.59,17.59,0,0,1,2,3.08,17.59,17.59,0,0,1-3.08-2,30,30,0,0,1-5-5A18,18,0,0,1,401.34,402.23Z" style="fill: rgb(235, 235, 235); transform-origin: 406.4px 407.29px;" id="elgvgqgfm7bsp" class="animable"></path><path d="M220.49,420.4c-38-4.08-74.87-21.23-102.06-48.68a160.15,160.15,0,0,1-32.38-47.65,190.5,190.5,0,0,1-9.79-27.2,208.34,208.34,0,0,1-5.85-28.32,188.44,188.44,0,0,1-1.53-28.89A178.22,178.22,0,0,1,72,210.89a172.89,172.89,0,0,1,20.21-53.95,205.77,205.77,0,0,1,35.56-45.19,214.41,214.41,0,0,1,22.07-18.43c7.76-5.59,15.87-10.82,24.69-14.57a99.64,99.64,0,0,0-12.43,7.09q-6,3.91-11.65,8.3a213.57,213.57,0,0,0-21.35,19,203.94,203.94,0,0,0-34.29,45.3A192.11,192.11,0,0,0,83,184.22a170.45,170.45,0,0,0-7.53,27.33,173.32,173.32,0,0,0-2.91,28.2,187.38,187.38,0,0,0,1.66,28.3,199.31,199.31,0,0,0,15,54.59,164.73,164.73,0,0,0,13.6,24.87c2.59,4,5.44,7.74,8.37,11.45s6,7.28,9.32,10.7a164.19,164.19,0,0,0,45.69,33.47A180.69,180.69,0,0,0,192.64,414q6.8,2.19,13.78,3.83A128.57,128.57,0,0,0,220.49,420.4Z" style="fill: rgb(219, 219, 219); transform-origin: 144.658px 249.575px;" id="els569qisbxys" class="animable"></path><path d="M209.73,418.54l0-.09c-.49-1.88-1-3.75-1.42-5.63l-2.76-11.27-2.84-11.26-1.46-5.62c-.53-1.87-1-3.74-1.56-5.6.55,3.84,1.28,7.65,2.05,11.44s1.63,7.59,2.54,11.35,1.92,7.51,3.06,11.23c.58,1.9,1.17,3.8,1.83,5.68a.33.33,0,0,1-.15,0c-1.43-.85-21.39-20.48-11-48.29.45-1.21,13.3,13.11,15.69,26.14C215.79,408,211.74,417,209.73,418.54Z" style="fill: rgb(219, 219, 219); transform-origin: 204.662px 394.593px;" id="el2kc7pl6uvf6" class="animable"></path><path d="M209.93,419.67l-.09,0c-1.86.54-3.71,1.07-5.56,1.65l-11.1,3.37L182,428l-5.58,1.6c-1.87.5-3.73,1.05-5.62,1.52,3.59-1.48,7.24-2.8,10.9-4.07s7.35-2.46,11.06-3.6,7.44-2.17,11.21-3.09c1.94-.46,3.87-.92,5.83-1.32a.32.32,0,0,0-.12-.11c-1.46-.79-28.51-8-47.14,15.16-.81,1,18.06,4.77,30.49.18C203.91,430.28,209.62,422.2,209.93,419.67Z" style="fill: rgb(219, 219, 219); transform-origin: 186.222px 426.875px;" id="elfbt8jiw8mxm" class="animable"></path><path d="M174.7,407.65l0-.1c-.48-1.87-1-3.74-1.41-5.62l-2.76-11.27-2.84-11.26-1.46-5.62c-.53-1.87-1-3.74-1.56-5.61.55,3.85,1.28,7.66,2,11.45s1.64,7.59,2.55,11.35,1.92,7.51,3.06,11.22c.58,1.9,1.17,3.81,1.82,5.69a.42.42,0,0,1-.15,0c-1.42-.86-21.38-20.48-11-48.29.45-1.22,13.3,13.11,15.69,26.14C180.76,397.06,176.71,406.09,174.7,407.65Z" style="fill: rgb(219, 219, 219); transform-origin: 169.604px 383.702px;" id="elpg5741g138g" class="animable"></path><path d="M174.9,408.78l-.09,0c-1.86.55-3.72,1.08-5.56,1.66l-11.11,3.37L147,417.12l-5.58,1.6c-1.88.5-3.73,1-5.62,1.52,3.59-1.48,7.24-2.8,10.9-4.07s7.35-2.46,11.06-3.6,7.43-2.18,11.21-3.09c1.93-.46,3.87-.92,5.83-1.32a.41.41,0,0,0-.12-.11c-1.46-.79-28.51-8-47.14,15.16-.81,1,18.06,4.77,30.49.18C168.88,419.39,174.59,411.31,174.9,408.78Z" style="fill: rgb(219, 219, 219); transform-origin: 151.207px 415.995px;" id="elee70t4nd4gh" class="animable"></path><path d="M140.55,388.66v-.1c0-1.93.07-3.86.14-5.8l.35-11.6.26-11.6.09-5.81c0-1.94,0-3.88,0-5.82-.49,3.85-.81,7.72-1.08,11.58s-.45,7.75-.57,11.62-.16,7.75,0,11.63c.06,2,.12,4,.24,6a.57.57,0,0,1-.13-.08c-1.15-1.21-15.15-25.44,2.3-49.47.76-1.05,9.33,16.18,8.15,29.38C149.21,380.07,142.91,387.7,140.55,388.66Z" style="fill: rgb(219, 219, 219); transform-origin: 141.931px 363.962px;" id="elpnwark4z3dc" class="animable"></path><path d="M140.44,389.8h-.09c-1.94,0-3.87.05-5.8.11l-11.6.29-11.61.21-5.81,0c-1.94,0-3.87,0-5.82,0,3.86-.47,7.73-.76,11.59-1s7.74-.4,11.62-.51,7.75-.12,11.63,0c2,.07,4,.14,6,.28a.3.3,0,0,0-.09-.13c-1.19-1.16-25.35-15.29-49.47,2-1.06.75,16.13,9.41,29.33,8.3C131.81,398.42,139.47,392.16,140.44,389.8Z" style="fill: rgb(219, 219, 219); transform-origin: 115.747px 390.981px;" id="elykadn2ybp9" class="animable"></path><path d="M114.05,364.25l0-.09c.49-1.88,1-3.75,1.49-5.61l3-11.2,3-11.22L123,330.5c.44-1.89.93-3.76,1.34-5.66-1.37,3.63-2.58,7.32-3.75,11s-2.24,7.42-3.26,11.16-2,7.5-2.76,11.3c-.41,1.95-.81,3.9-1.15,5.86a.23.23,0,0,1-.11-.11c-.84-1.44-8.81-28.27,13.76-47.57,1-.84,5.3,17.91,1.08,30.47C124.48,357.92,116.57,363.86,114.05,364.25Z" style="fill: rgb(219, 219, 219); transform-origin: 120.619px 340.351px;" id="elwthsculq1ps" class="animable"></path><path d="M113.68,365.34l-.09,0c-1.89-.43-3.77-.86-5.67-1.25l-11.35-2.43-11.33-2.5-5.66-1.3c-1.88-.47-3.77-.9-5.65-1.4,3.86.45,7.69,1.06,11.5,1.71s7.63,1.41,11.42,2.21,7.56,1.7,11.31,2.73c1.92.53,3.83,1.06,5.74,1.66a.33.33,0,0,0-.05-.15c-.89-1.4-21.1-20.77-48.59-9.55-1.2.49,13.49,12.91,26.59,14.91C103.28,371.71,112.18,367.4,113.68,365.34Z" style="fill: rgb(219, 219, 219); transform-origin: 89.5455px 360.985px;" id="eliz3y1hfn6" class="animable"></path><path d="M94,337.63l0-.09c.57-1.7,1.13-3.39,1.73-5.08l3.51-10.14,3.45-10.17,1.68-5.1c.53-1.71,1.1-3.41,1.6-5.13-1.5,3.26-2.84,6.58-4.15,9.92s-2.54,6.71-3.72,10.09-2.28,6.8-3.26,10.25c-.5,1.77-1,3.55-1.44,5.34a.31.31,0,0,1-.09-.11c-.68-1.38-6.34-26.64,15.71-43,1-.72,3.76,16.86-.93,28.18C104.05,332.44,96.37,337.43,94,337.63Z" style="fill: rgb(219, 219, 219); transform-origin: 101.452px 316.009px;" id="elun2cq2y8xwa" class="animable"></path><path d="M93.62,338.61l-.09,0c-1.72-.51-3.43-1-5.15-1.51l-10.32-2.95-10.3-3-5.14-1.56c-1.7-.55-3.42-1.06-5.12-1.64,3.53.65,7,1.46,10.51,2.3S75,332,78.4,333s6.87,2.05,10.26,3.23c1.74.61,3.47,1.23,5.19,1.9a.32.32,0,0,0,0-.14c-.74-1.35-18.15-20.5-44.23-11.89-1.14.38,11.63,12.77,23.59,15.44C83.61,343.83,92.1,340.41,93.62,338.61Z" style="fill: rgb(219, 219, 219); transform-origin: 71.7033px 333.093px;" id="elr3z9jiamlre" class="animable"></path><path d="M78.82,297.18l.06-.07c1-1.47,2-2.93,3.09-4.38L88.22,284l6.19-8.77,3.06-4.41c1-1.5,2-3,3-4.47-2.36,2.7-4.6,5.51-6.8,8.33s-4.34,5.71-6.44,8.62-4.11,5.87-6,8.91c-1,1.55-2,3.11-2.89,4.7a.31.31,0,0,1-.06-.13c-.26-1.51,1.49-27.34,27.28-36.79,1.12-.41-1.19,17.24-8.9,26.76C89.9,295.06,81.13,297.66,78.82,297.18Z" style="fill: rgb(219, 219, 219); transform-origin: 92.0425px 278.609px;" id="elf6je6iglkng" class="animable"></path><path d="M78.15,298l-.07-.05c-1.5-1-3-2-4.51-2.91l-9-5.76-9-5.83-4.49-3c-1.47-1-3-2-4.44-3,3.2,1.63,6.32,3.4,9.42,5.2s6.15,3.68,9.18,5.6,6,3.9,8.92,6c1.49,1.07,3,2.16,4.44,3.29a.26.26,0,0,0,0-.15c-.33-1.5-11.58-24.81-39-23.95C38.3,273.5,47,289,57.74,295,67.08,300.17,76.19,299.31,78.15,298Z" style="fill: rgb(219, 219, 219); transform-origin: 59.041px 286.208px;" id="el73qjxsypd37" class="animable"></path><path d="M71,258.31l.07-.06c1.33-1.2,2.65-2.4,4-3.57l8-7.1,8-7.15,4-3.61c1.31-1.23,2.64-2.43,3.93-3.68-2.91,2.1-5.72,4.33-8.51,6.59s-5.51,4.58-8.2,7S77,251.47,74.42,254c-1.31,1.3-2.61,2.6-3.88,3.94a.23.23,0,0,1,0-.14c.08-1.54,7.6-26.31,34.86-29.7,1.19-.15-5,16.52-14.7,24.06C82.26,258.73,73.12,259.29,71,258.31Z" style="fill: rgb(219, 219, 219); transform-origin: 88.0375px 243.393px;" id="eln9k04mmfxaj" class="animable"></path><path d="M70.15,259l-.07-.06c-1.24-1.3-2.47-2.59-3.73-3.86l-7.53-7.65-7.47-7.71-3.71-3.89c-1.21-1.32-2.45-2.61-3.65-3.95,2.76,2.31,5.4,4.73,8,7.18s5.17,5,7.69,7.52,5,5.17,7.34,7.87c1.21,1.38,2.42,2.77,3.58,4.2a.23.23,0,0,0,0-.14c0-1.53-5.7-26.78-32.64-32.13-1.17-.23,3.84,16.85,12.93,25.06C58.87,258.57,67.94,259.79,70.15,259Z" style="fill: rgb(219, 219, 219); transform-origin: 54.2015px 242.794px;" id="eln51vqs8n89e" class="animable"></path><path d="M71.91,220.36l.08-.05c1.53-.92,3.06-1.83,4.62-2.72l9.28-5.39,9.24-5.46,4.6-2.77c1.52-1,3.06-1.87,4.57-2.85-3.26,1.5-6.46,3.14-9.62,4.81s-6.3,3.43-9.41,5.22-6.16,3.66-9.15,5.64c-1.54,1-3.07,2-4.57,3.11a.33.33,0,0,1,0-.14c.38-1.49,12.58-24.32,40-22.36,1.2.09-8.15,15.23-19.09,20.75C82.89,223,73.82,221.74,71.91,220.36Z" style="fill: rgb(219, 219, 219); transform-origin: 91.5983px 209.443px;" id="elf2ulze3wjn7" class="animable"></path><path d="M71,220.83l0-.07c-1-1.51-1.92-3-2.92-4.5l-5.89-9-5.83-9-2.88-4.53c-.93-1.54-1.9-3-2.81-4.59,2.25,2.8,4.37,5.69,6.46,8.6s4.1,5.88,6.08,8.87,3.87,6,5.67,9.15c.91,1.59,1.83,3.19,2.7,4.82a.38.38,0,0,0,.06-.13c.32-1.51-.38-27.38-25.77-37.86-1.11-.46.49,17.26,7.81,27.09C60,218.26,68.64,221.22,71,220.83Z" style="fill: rgb(219, 219, 219); transform-origin: 58.6182px 201.722px;" id="elgyv1nopqkdc" class="animable"></path><path d="M81.07,185.93h.09c1.69-.34,3.37-.68,5.07-1L96.38,183l10.15-2,5.07-1c1.68-.38,3.37-.72,5.06-1.12-3.45.31-6.87.77-10.28,1.27s-6.82,1.08-10.21,1.71S89.4,183.22,86,184.05c-1.72.43-3.44.86-5.15,1.35a.5.5,0,0,1,0-.13c.83-1.23,19.24-18,43.47-7.42,1,.47-12.3,11.2-24,12.68C90.19,191.83,82.36,187.8,81.07,185.93Z" style="fill: rgb(219, 219, 219); transform-origin: 102.609px 182.574px;" id="elxpmrliy22pa" class="animable"></path><path d="M80.06,186.06l0-.08c-.39-1.69-.78-3.36-1.2-5l-2.46-10L74,160.86l-1.15-5c-.35-1.69-.75-3.37-1.07-5.07,1.14,3.26,2.13,6.57,3.09,9.88s1.83,6.66,2.66,10,1.57,6.72,2.2,10.12c.32,1.74.63,3.49.9,5.24a.28.28,0,0,0,.1-.09c.77-1.26,8.46-25-11.2-42.65-.86-.77-5.12,15.82-1.63,27.1C70.92,180.19,77.83,185.66,80.06,186.06Z" style="fill: rgb(219, 219, 219); transform-origin: 74.6986px 164.662px;" id="el1aqsunap0h7" class="animable"></path><path d="M94.65,157.85h.08c1.72-.14,3.43-.29,5.15-.39l10.31-.73,10.31-.79,5.15-.44c1.72-.19,3.43-.32,5.15-.53-3.45-.09-6.91,0-10.35.08s-6.9.29-10.35.52-6.88.55-10.3,1c-1.76.23-3.52.46-5.27.75a.31.31,0,0,1,.06-.13c1-1.12,21.19-15.68,44-2.36,1,.58-13.51,9.71-25.3,9.83C103,164.76,95.71,159.85,94.65,157.85Z" style="fill: rgb(219, 219, 219); transform-origin: 116.584px 156.955px;" id="elfpkpfa4wvkf" class="animable"></path><path d="M93.62,157.86v-.09c-.19-1.71-.38-3.42-.61-5.13l-1.28-10.25L90.5,132.12,89.94,127c-.16-1.72-.36-3.43-.49-5.16.76,3.38,1.37,6.78,1.94,10.18s1,6.82,1.48,10.25.8,6.85,1,10.3c.11,1.77.23,3.54.28,5.31a.23.23,0,0,0,.11-.08c.92-1.16,11.29-23.82-6.2-43.66-.77-.86-6.91,15.13-4.75,26.73C85.22,151,91.45,157.2,93.62,157.86Z" style="fill: rgb(219, 219, 219); transform-origin: 90.4993px 135.993px;" id="eltkzjgoibx28" class="animable"></path><path d="M134.52,107.62h.07c1.41.18,2.81.37,4.21.58l8.41,1.2,8.42,1.15,4.22.54c1.41.15,2.82.34,4.23.47-2.76-.67-5.55-1.22-8.33-1.73s-5.6-1-8.41-1.38-5.62-.75-8.45-1c-1.46-.12-2.91-.24-4.37-.31a.31.31,0,0,1,.07-.09c1-.73,19.75-8.93,35.8,5.74.7.64-12.54,5.46-22,3.51C140.06,114.63,135,109.41,134.52,107.62Z" style="fill: rgb(219, 219, 219); transform-origin: 152.468px 110.436px;" id="eldui5nhtrpn9" class="animable"></path><path d="M133.7,107.45v-.07c.14-1.41.28-2.82.39-4.23l.75-8.46.8-8.46.44-4.23c.17-1.41.31-2.82.51-4.23,0,2.84-.08,5.68-.21,8.51s-.34,5.67-.59,8.5-.55,5.64-1,8.46c-.22,1.44-.43,2.88-.69,4.32l.1,0c.94-.78,13.2-17.2,2.58-36.17-.46-.83-8.17,11-8.45,20.66C128.14,100.46,132.07,106.55,133.7,107.45Z" style="fill: rgb(219, 219, 219); transform-origin: 134.704px 89.4543px;" id="elx2fwruz6rop" class="animable"></path><path d="M157.1,90.18h.07c1.41.19,2.81.37,4.21.58L169.79,92l8.42,1.15,4.22.54c1.41.15,2.82.34,4.24.47-2.77-.68-5.55-1.22-8.34-1.74s-5.6-1-8.4-1.37-5.63-.75-8.46-1c-1.45-.12-2.91-.24-4.37-.32l.08-.09c1-.73,19.75-8.93,35.8,5.74.7.64-12.54,5.46-22,3.52C162.64,97.19,157.61,92,157.1,90.18Z" style="fill: rgb(219, 219, 219); transform-origin: 175.053px 93.0286px;" id="el0tr2zzosz7b" class="animable"></path><path d="M156.28,90v-.07c.14-1.41.28-2.81.4-4.23l.74-8.46.8-8.46.44-4.23c.18-1.41.31-2.82.51-4.23,0,2.84-.08,5.68-.21,8.51s-.34,5.67-.58,8.5-.56,5.65-1,8.46c-.21,1.44-.43,2.88-.69,4.32a.31.31,0,0,0,.1-.05c.94-.78,13.21-17.19,2.59-36.17-.47-.82-8.18,11-8.46,20.67C150.72,83,154.65,89.11,156.28,90Z" style="fill: rgb(219, 219, 219); transform-origin: 157.297px 71.9798px;" id="eldxushj6lr1c" class="animable"></path><path d="M112.89,130.83H113c1.41-.15,2.81-.31,4.22-.44l8.46-.84,8.45-.9,4.23-.48c1.4-.19,2.81-.34,4.22-.55-2.84,0-5.68.14-8.51.3s-5.67.4-8.49.68-5.64.61-8.45,1.06c-1.44.22-2.88.46-4.31.73a.19.19,0,0,1,0-.1c.76-.95,17-13.39,36.13-3,.83.46-10.87,8.3-20.57,8.68C119.94,136.31,113.81,132.45,112.89,130.83Z" style="fill: rgb(219, 219, 219); transform-origin: 130.903px 129.582px;" id="elhee78p53aqb" class="animable"></path><path d="M112.05,130.86v-.07c-.2-1.4-.4-2.8-.63-4.2l-1.29-8.4-1.24-8.41-.59-4.21c-.17-1.41-.37-2.81-.52-4.22.7,2.75,1.28,5.53,1.83,8.31s1,5.59,1.47,8.39.81,5.62,1.08,8.45c.13,1.45.27,2.9.36,4.36a.34.34,0,0,0,.09-.08c.72-1,8.71-19.84-6.13-35.73-.65-.69-5.32,12.6-3.28,22.08C105,125.4,110.25,130.37,112.05,130.86Z" style="fill: rgb(219, 219, 219); transform-origin: 109.044px 112.942px;" id="elyxr89v0im3" class="animable"></path><path d="M279.51,420.4c38-4.08,74.87-21.23,102.06-48.68A160.15,160.15,0,0,0,414,324.07a190.5,190.5,0,0,0,9.79-27.2,208.34,208.34,0,0,0,5.85-28.32,188.44,188.44,0,0,0,1.53-28.89A178.22,178.22,0,0,0,428,210.89a172.89,172.89,0,0,0-20.21-53.95,205.77,205.77,0,0,0-35.56-45.19,214.41,214.41,0,0,0-22.07-18.43c-7.76-5.59-15.87-10.82-24.69-14.57a99.64,99.64,0,0,1,12.43,7.09q6,3.91,11.65,8.3a213.57,213.57,0,0,1,21.35,19,203.94,203.94,0,0,1,34.29,45.3A192.11,192.11,0,0,1,417,184.22a170.45,170.45,0,0,1,7.53,27.33,173.32,173.32,0,0,1,2.91,28.2,187.38,187.38,0,0,1-1.66,28.3,199.31,199.31,0,0,1-15,54.59,164.73,164.73,0,0,1-13.6,24.87c-2.59,4-5.44,7.74-8.37,11.45s-6,7.28-9.32,10.7a164.19,164.19,0,0,1-45.69,33.47A180.69,180.69,0,0,1,307.36,414q-6.8,2.19-13.78,3.83A129,129,0,0,1,279.51,420.4Z" style="fill: rgb(219, 219, 219); transform-origin: 355.367px 249.575px;" id="elrgqzxmu1p6q" class="animable"></path><path d="M290.27,418.54l0-.09c.49-1.88,1-3.75,1.42-5.63l2.76-11.27,2.84-11.26,1.46-5.62c.53-1.87,1-3.74,1.56-5.6-.55,3.84-1.28,7.65-2.05,11.44s-1.63,7.59-2.54,11.35-1.92,7.51-3.06,11.23c-.58,1.9-1.17,3.8-1.83,5.68a.33.33,0,0,0,.15,0c1.43-.85,21.39-20.48,11-48.29-.45-1.21-13.3,13.11-15.69,26.14C284.21,408,288.26,417,290.27,418.54Z" style="fill: rgb(219, 219, 219); transform-origin: 295.338px 394.593px;" id="elqgfzbikfx0c" class="animable"></path><path d="M290.07,419.67l.09,0c1.86.54,3.71,1.07,5.56,1.65l11.1,3.37L318,428l5.58,1.6c1.87.5,3.73,1.05,5.62,1.52-3.59-1.48-7.24-2.8-10.9-4.07s-7.35-2.46-11.06-3.6-7.44-2.17-11.21-3.09c-1.94-.46-3.87-.92-5.83-1.32a.32.32,0,0,1,.12-.11c1.46-.79,28.51-8,47.14,15.16.81,1-18.06,4.77-30.49.18C296.09,430.28,290.38,422.2,290.07,419.67Z" style="fill: rgb(219, 219, 219); transform-origin: 313.778px 426.875px;" id="eldntfxee7d6" class="animable"></path><path d="M325.3,407.65l0-.1c.48-1.87,1-3.74,1.41-5.62l2.76-11.27,2.84-11.26,1.46-5.62c.53-1.87,1-3.74,1.56-5.61-.55,3.85-1.28,7.66-2,11.45s-1.64,7.59-2.55,11.35-1.92,7.51-3.06,11.22c-.58,1.9-1.17,3.81-1.82,5.69a.42.42,0,0,0,.15,0c1.42-.86,21.38-20.48,11-48.29-.45-1.22-13.3,13.11-15.69,26.14C319.24,397.06,323.29,406.09,325.3,407.65Z" style="fill: rgb(219, 219, 219); transform-origin: 330.396px 383.702px;" id="els1ejam1ktrk" class="animable"></path><path d="M325.1,408.78l.09,0c1.86.55,3.72,1.08,5.56,1.66l11.11,3.37L353,417.12l5.58,1.6c1.88.5,3.73,1,5.62,1.52-3.59-1.48-7.24-2.8-10.9-4.07s-7.35-2.46-11.06-3.6-7.43-2.18-11.21-3.09c-1.93-.46-3.87-.92-5.83-1.32a.41.41,0,0,1,.12-.11c1.46-.79,28.51-8,47.14,15.16.81,1-18.06,4.77-30.49.18C331.12,419.39,325.41,411.31,325.1,408.78Z" style="fill: rgb(219, 219, 219); transform-origin: 348.793px 415.995px;" id="elg8jjeqgcbmp" class="animable"></path><path d="M359.45,388.66v-.1c0-1.93-.07-3.86-.14-5.8l-.35-11.6-.26-11.6-.09-5.81c0-1.94,0-3.88,0-5.82.49,3.85.81,7.72,1.08,11.58s.45,7.75.57,11.62.16,7.75.05,11.63c-.06,2-.12,4-.24,6a.57.57,0,0,0,.13-.08c1.15-1.21,15.15-25.44-2.3-49.47-.76-1.05-9.33,16.18-8.15,29.38C350.79,380.07,357.09,387.7,359.45,388.66Z" style="fill: rgb(219, 219, 219); transform-origin: 358.119px 363.962px;" id="elfrj4qa1mo19" class="animable"></path><path d="M359.56,389.8h.09c1.94,0,3.87.05,5.8.11l11.6.29,11.61.21,5.81,0c1.94,0,3.87,0,5.82,0-3.86-.47-7.73-.76-11.59-1s-7.74-.4-11.62-.51-7.75-.12-11.63,0c-2,.07-4,.14-6,.28a.3.3,0,0,1,.09-.13c1.19-1.16,25.35-15.29,49.47,2,1.06.75-16.13,9.41-29.33,8.3C368.19,398.42,360.53,392.16,359.56,389.8Z" style="fill: rgb(219, 219, 219); transform-origin: 384.253px 390.981px;" id="elgeyqiuuz7qo" class="animable"></path><path d="M386,364.25l0-.09c-.49-1.88-1-3.75-1.49-5.61l-3-11.2-3-11.22L377,330.5c-.44-1.89-.93-3.76-1.34-5.66,1.37,3.63,2.58,7.32,3.75,11s2.24,7.42,3.26,11.16,2,7.5,2.76,11.3c.41,1.95.81,3.9,1.15,5.86a.23.23,0,0,0,.11-.11c.84-1.44,8.81-28.27-13.76-47.57-1-.84-5.3,17.91-1.08,30.47C375.52,357.92,383.43,363.86,386,364.25Z" style="fill: rgb(219, 219, 219); transform-origin: 379.381px 340.351px;" id="elt5xq2xrqvjr" class="animable"></path><path d="M386.32,365.34l.09,0c1.89-.43,3.77-.86,5.67-1.25l11.35-2.43,11.33-2.5,5.66-1.3c1.88-.47,3.77-.9,5.65-1.4-3.86.45-7.69,1.06-11.5,1.71s-7.63,1.41-11.42,2.21-7.56,1.7-11.31,2.73c-1.92.53-3.84,1.06-5.74,1.66a.33.33,0,0,1,0-.15c.89-1.4,21.1-20.77,48.59-9.55,1.2.49-13.49,12.91-26.59,14.91C396.72,371.71,387.82,367.4,386.32,365.34Z" style="fill: rgb(219, 219, 219); transform-origin: 410.425px 360.985px;" id="el1of520pyau6" class="animable"></path><path d="M406,337.63l0-.09c-.57-1.7-1.13-3.39-1.73-5.08l-3.51-10.14-3.45-10.17-1.68-5.1c-.53-1.71-1.1-3.41-1.6-5.13,1.5,3.26,2.84,6.58,4.15,9.92s2.54,6.71,3.72,10.09,2.28,6.8,3.26,10.25c.5,1.77,1,3.55,1.44,5.34a.31.31,0,0,0,.09-.11c.68-1.38,6.34-26.64-15.71-43-1-.72-3.76,16.86.93,28.18C396,332.44,403.63,337.43,406,337.63Z" style="fill: rgb(219, 219, 219); transform-origin: 398.548px 316.009px;" id="elc802vm0yqft" class="animable"></path><path d="M406.38,338.61l.09,0c1.72-.51,3.43-1,5.15-1.51l10.32-2.95,10.3-3,5.14-1.56c1.7-.55,3.42-1.06,5.12-1.64-3.53.65-7,1.46-10.51,2.3S425.05,332,421.6,333s-6.87,2.05-10.26,3.23c-1.74.61-3.47,1.23-5.19,1.9a.32.32,0,0,1,0-.14c.74-1.35,18.15-20.5,44.23-11.89,1.14.38-11.63,12.77-23.59,15.44C416.39,343.83,407.9,340.41,406.38,338.61Z" style="fill: rgb(219, 219, 219); transform-origin: 428.297px 333.093px;" id="elitwha0t73eh" class="animable"></path><path d="M421.18,297.18l-.06-.07c-1-1.47-2-2.93-3.09-4.38L411.78,284l-6.19-8.77-3.06-4.41c-1-1.5-2-3-3-4.47,2.36,2.7,4.6,5.51,6.8,8.33s4.34,5.71,6.44,8.62,4.11,5.87,6,8.91c1,1.55,2,3.11,2.89,4.7a.31.31,0,0,0,.06-.13c.26-1.51-1.49-27.34-27.28-36.79-1.12-.41,1.19,17.24,8.9,26.76C410.1,295.06,418.87,297.66,421.18,297.18Z" style="fill: rgb(219, 219, 219); transform-origin: 407.957px 278.609px;" id="elv6x6tgovhx7" class="animable"></path><path d="M421.85,298l.07-.05c1.5-1,3-2,4.51-2.91l9.05-5.76,9-5.83,4.49-3c1.47-1,3-2,4.44-3-3.2,1.63-6.32,3.4-9.42,5.2s-6.15,3.68-9.18,5.6-6,3.9-8.92,6c-1.49,1.07-3,2.16-4.44,3.29a.26.26,0,0,1,0-.15c.33-1.5,11.58-24.81,39-23.95,1.2,0-7.53,15.54-18.24,21.5C432.92,300.17,423.81,299.31,421.85,298Z" style="fill: rgb(219, 219, 219); transform-origin: 441px 286.206px;" id="el99a76u7bzzb" class="animable"></path><path d="M429,258.31l-.06-.06c-1.33-1.2-2.65-2.4-4-3.57l-8.05-7.1-8-7.15-4-3.61c-1.31-1.23-2.64-2.43-3.93-3.68,2.91,2.1,5.72,4.33,8.51,6.59s5.51,4.58,8.2,7,5.34,4.79,7.89,7.31c1.31,1.3,2.61,2.6,3.88,3.94a.23.23,0,0,0,0-.14c-.08-1.54-7.6-26.31-34.86-29.7-1.19-.15,5,16.52,14.7,24.06C417.74,258.73,426.88,259.29,429,258.31Z" style="fill: rgb(219, 219, 219); transform-origin: 411.943px 243.414px;" id="elmnb1lrubqop" class="animable"></path><path d="M429.85,259l.07-.06c1.24-1.3,2.47-2.59,3.73-3.86l7.53-7.65,7.47-7.71,3.71-3.89c1.21-1.32,2.45-2.61,3.65-3.95-2.76,2.31-5.4,4.73-8,7.18s-5.17,5-7.69,7.52-5,5.17-7.34,7.87c-1.21,1.38-2.42,2.77-3.58,4.2a.23.23,0,0,1,0-.14c0-1.53,5.7-26.78,32.64-32.13,1.17-.23-3.84,16.85-12.93,25.06C441.13,258.57,432.06,259.79,429.85,259Z" style="fill: rgb(219, 219, 219); transform-origin: 445.799px 242.794px;" id="el3yaklbful98" class="animable"></path><path d="M428.09,220.36l-.08-.05c-1.53-.92-3.06-1.83-4.62-2.72l-9.28-5.39-9.24-5.46L400.26,204c-1.51-1-3.05-1.87-4.56-2.85,3.26,1.5,6.46,3.14,9.62,4.81s6.3,3.43,9.41,5.22,6.16,3.66,9.15,5.64c1.54,1,3.07,2,4.57,3.11a.33.33,0,0,0,0-.14c-.38-1.49-12.58-24.32-40-22.36-1.2.09,8.15,15.23,19.09,20.75C417.11,223,426.18,221.74,428.09,220.36Z" style="fill: rgb(219, 219, 219); transform-origin: 408.402px 209.459px;" id="elulgyxhzkl59" class="animable"></path><path d="M429,220.83l0-.07c1-1.51,1.92-3,2.92-4.5l5.89-9,5.83-9,2.88-4.53c.93-1.54,1.9-3,2.81-4.59-2.25,2.8-4.37,5.69-6.46,8.6s-4.1,5.88-6.08,8.87-3.87,6-5.67,9.15c-.91,1.59-1.83,3.19-2.7,4.82a.38.38,0,0,1-.06-.13c-.32-1.51.38-27.38,25.77-37.86,1.11-.46-.49,17.26-7.81,27.09C440,218.26,431.36,221.22,429,220.83Z" style="fill: rgb(219, 219, 219); transform-origin: 441.382px 201.722px;" id="elx83ztlcne1" class="animable"></path><path d="M418.93,185.93h-.09c-1.69-.34-3.37-.68-5.07-1L403.62,183l-10.15-2-5.07-1c-1.68-.38-3.37-.72-5.06-1.12,3.45.31,6.87.77,10.28,1.27s6.82,1.08,10.21,1.71,6.77,1.34,10.13,2.17c1.72.43,3.44.86,5.15,1.35a.5.5,0,0,0-.05-.13c-.83-1.23-19.24-18-43.47-7.42-1,.47,12.3,11.2,24,12.68C409.81,191.83,417.64,187.8,418.93,185.93Z" style="fill: rgb(219, 219, 219); transform-origin: 397.323px 182.558px;" id="elbq4aaxjon6" class="animable"></path><path d="M419.94,186.06l0-.08c.39-1.69.78-3.36,1.2-5l2.46-10L426,160.86l1.15-5c.35-1.69.75-3.37,1.07-5.07-1.14,3.26-2.13,6.57-3.09,9.88s-1.83,6.66-2.66,10-1.57,6.72-2.2,10.12c-.32,1.74-.63,3.49-.9,5.24a.28.28,0,0,1-.1-.09c-.77-1.26-8.46-25,11.2-42.65.86-.77,5.11,15.82,1.63,27.1C429.08,180.19,422.17,185.66,419.94,186.06Z" style="fill: rgb(219, 219, 219); transform-origin: 425.299px 164.662px;" id="eldxu8bplxhfu" class="animable"></path><path d="M405.35,157.85h-.08c-1.72-.14-3.43-.29-5.15-.39l-10.31-.73-10.31-.79-5.15-.44c-1.72-.19-3.43-.32-5.15-.53,3.45-.09,6.91,0,10.35.08s6.9.29,10.35.52,6.88.55,10.3,1c1.76.23,3.52.46,5.27.75a.31.31,0,0,0-.06-.13c-1-1.12-21.19-15.68-44-2.36-1,.58,13.51,9.71,25.3,9.83C397,164.76,404.29,159.85,405.35,157.85Z" style="fill: rgb(219, 219, 219); transform-origin: 383.416px 156.955px;" id="elmflff76npi" class="animable"></path><path d="M406.38,157.86v-.09c.19-1.71.38-3.42.61-5.13l1.28-10.25,1.22-10.27.56-5.14c.16-1.72.36-3.43.49-5.16-.76,3.38-1.37,6.78-1.94,10.18s-1.05,6.82-1.48,10.25-.8,6.85-1,10.3c-.11,1.77-.23,3.54-.28,5.31a.23.23,0,0,1-.11-.08c-.92-1.16-11.29-23.82,6.2-43.66.77-.86,6.91,15.13,4.75,26.73C414.78,151,408.55,157.2,406.38,157.86Z" style="fill: rgb(219, 219, 219); transform-origin: 409.491px 135.973px;" id="eluu5rl0nk62" class="animable"></path><path d="M365.48,107.62h-.07c-1.41.18-2.81.37-4.21.58l-8.41,1.2-8.42,1.15-4.22.54c-1.41.15-2.82.34-4.23.47,2.76-.67,5.55-1.22,8.33-1.73s5.6-1,8.41-1.38,5.62-.75,8.45-1c1.46-.12,2.91-.24,4.37-.31a.31.31,0,0,0-.07-.09c-1-.73-19.75-8.93-35.8,5.74-.7.64,12.54,5.46,22,3.51C359.94,114.63,365,109.41,365.48,107.62Z" style="fill: rgb(219, 219, 219); transform-origin: 347.532px 110.436px;" id="el2tlv6oj38ck" class="animable"></path><path d="M366.3,107.45v-.07c-.14-1.41-.28-2.82-.39-4.23l-.75-8.46-.8-8.46L363.91,82c-.17-1.41-.31-2.82-.51-4.23,0,2.84.08,5.68.21,8.51s.34,5.67.59,8.5.55,5.64,1,8.46c.22,1.44.43,2.88.69,4.32a.31.31,0,0,1-.1,0c-.94-.78-13.2-17.2-2.58-36.17.46-.83,8.17,11,8.45,20.66C371.86,100.46,367.93,106.55,366.3,107.45Z" style="fill: rgb(219, 219, 219); transform-origin: 365.287px 89.4564px;" id="el7fxb8b00r5m" class="animable"></path><path d="M342.9,90.18h-.07c-1.41.19-2.81.37-4.21.58L330.21,92l-8.42,1.15-4.22.54c-1.41.15-2.82.34-4.24.47,2.77-.68,5.55-1.22,8.34-1.74s5.6-1,8.4-1.37,5.63-.75,8.46-1c1.45-.12,2.91-.24,4.37-.32l-.08-.09c-1-.73-19.75-8.93-35.8,5.74-.7.64,12.54,5.46,22.05,3.52C337.36,97.19,342.39,92,342.9,90.18Z" style="fill: rgb(219, 219, 219); transform-origin: 324.947px 93.0286px;" id="el8q8lk0lfp95" class="animable"></path><path d="M343.72,90v-.07c-.14-1.41-.28-2.81-.4-4.23l-.74-8.46-.8-8.46-.44-4.23c-.18-1.41-.31-2.82-.51-4.23,0,2.84.08,5.68.21,8.51s.34,5.67.58,8.5.56,5.65,1,8.46c.21,1.44.43,2.88.69,4.32l-.1-.05c-.94-.78-13.21-17.19-2.59-36.17.47-.82,8.18,11,8.46,20.67C349.28,83,345.35,89.11,343.72,90Z" style="fill: rgb(219, 219, 219); transform-origin: 342.703px 71.9798px;" id="elng5hgf18jmo" class="animable"></path><path d="M387.11,130.83H387c-1.41-.15-2.81-.31-4.22-.44l-8.46-.84-8.45-.9-4.23-.48c-1.4-.19-2.81-.34-4.22-.55,2.84,0,5.68.14,8.51.3s5.67.4,8.49.68,5.64.61,8.45,1.06c1.44.22,2.88.46,4.31.73a.19.19,0,0,0-.05-.1c-.76-.95-17-13.39-36.13-3-.83.46,10.87,8.3,20.57,8.68C380.06,136.31,386.19,132.45,387.11,130.83Z" style="fill: rgb(219, 219, 219); transform-origin: 369.069px 129.582px;" id="el2ilnxxgp5d" class="animable"></path><path d="M388,130.86v-.07c.2-1.4.4-2.8.63-4.2l1.29-8.4,1.24-8.41.59-4.21c.17-1.41.37-2.81.52-4.22-.7,2.75-1.28,5.53-1.83,8.31s-1,5.59-1.47,8.39-.81,5.62-1.08,8.45c-.13,1.45-.27,2.9-.36,4.36a.34.34,0,0,1-.09-.08c-.72-1-8.71-19.84,6.13-35.73.65-.69,5.32,12.6,3.28,22.08C395,125.4,389.75,130.37,388,130.86Z" style="fill: rgb(219, 219, 219); transform-origin: 391.006px 112.942px;" id="eldvidprv93f9" class="animable"></path></g><g id="freepik--Bottles--inject-251" class="animable" style="transform-origin: 250px 275.625px;"><path d="M367.52,402.17,331,388.68l-36.61-13.52c-3.46-1.28,40.79-110.49,45.34-122.82s37.48-36.41,40.06-43.38,16-43.37,16-43.37L426.61,177l-16,43.37c-2.57,7,6.79,46.73,2.26,59S371,403.45,367.52,402.17Z" style="fill: #FFC100; transform-origin: 360.404px 283.885px;" id="el83zva04cpbm" class="animable"></path><g id="elrmooa8pqmys"><g style="opacity: 0.9; transform-origin: 360.526px 283.655px;" class="animable" id="elcazpvli33zf"><path d="M367.52,402.17,331,388.68l-36.61-13.52c-3.46-1.28,40.79-110.49,45.34-122.82s37.48-36.41,40.06-43.38,16-43.37,16-43.37L426.61,177l-16,43.37c-2.57,7,6.79,46.73,2.26,59S371,403.45,367.52,402.17Z" style="fill: rgb(255, 255, 255); transform-origin: 360.404px 283.885px;" id="el2la3c5todzv" class="animable"></path><path d="M367.52,402.17l-36.93-13.58-18.46-6.79-9.24-3.39-4.61-1.7-2.31-.85-1.15-.42a3,3,0,0,1-.61-.26,1,1,0,0,1-.15-.66,25.23,25.23,0,0,1,1-4.82c.45-1.58.94-3.14,1.45-4.7,1-3.12,2.08-6.22,3.18-9.32,2.18-6.18,4.45-12.33,6.75-18.47,4.61-12.29,9.34-24.52,14.1-36.74L335,263.84l3.57-9.16a33.42,33.42,0,0,1,1.92-4.56A31.83,31.83,0,0,1,343.2,246a133.64,133.64,0,0,1,13.55-14.29c4.77-4.52,9.66-8.89,14.4-13.4a76.46,76.46,0,0,0,6.77-7.07,11.9,11.9,0,0,0,1.31-2c.33-.68.58-1.51.87-2.26l1.7-4.62,13.63-36.91.12-.32.33.12,30.84,11.43.28.1-.1.29-10.29,27.75-5.14,13.88-.64,1.73a8.48,8.48,0,0,0-.35,1.75,31.89,31.89,0,0,0-.07,3.66c.09,2.46.32,4.91.57,7.36,1,9.81,2.48,19.58,3.1,29.44.15,2.47.24,4.94.21,7.41a37.55,37.55,0,0,1-.72,7.39,25.58,25.58,0,0,1-1.13,3.54l-1.23,3.48-2.43,7c-6.44,18.65-12.86,37.31-19.45,55.91-3.3,9.29-6.63,18.58-10.07,27.83-1.72,4.62-3.47,9.23-5.29,13.82-.92,2.29-1.85,4.57-2.84,6.83-.49,1.13-1,2.26-1.54,3.36-.28.56-.56,1.1-.87,1.64-.16.26-.32.52-.5.77S367.84,402.19,367.52,402.17Zm0,0c.32,0,.51-.32.7-.54a7.85,7.85,0,0,0,.49-.78c.31-.53.59-1.08.87-1.63.54-1.11,1-2.23,1.54-3.37,1-2.26,1.9-4.54,2.81-6.84,1.81-4.58,3.55-9.2,5.26-13.83q5.12-13.87,10-27.85c6.55-18.62,12.92-37.29,19.32-56l2.41-7,1.22-3.49a25.41,25.41,0,0,0,1.1-3.51,37.29,37.29,0,0,0,.7-7.32c0-2.46-.08-4.92-.23-7.38-.64-9.83-2.13-19.59-3.18-29.41-.26-2.45-.49-4.91-.58-7.39a29.06,29.06,0,0,1,.06-3.73,8.84,8.84,0,0,1,.37-1.87l.63-1.74,5.11-13.89,10.21-27.77.18.39-30.86-11.35.44-.21-13.62,36.91-1.71,4.62c-.31.77-.52,1.52-.9,2.32a12.38,12.38,0,0,1-1.4,2.1,79.55,79.55,0,0,1-6.84,7.13c-4.77,4.51-9.68,8.86-14.45,13.35a135.26,135.26,0,0,0-13.52,14.2,31,31,0,0,0-2.72,4,33.27,33.27,0,0,0-1.91,4.49L335.42,264,321,300.62c-4.79,12.2-9.55,24.42-14.18,36.69-2.32,6.14-4.61,12.28-6.81,18.46-1.1,3.09-2.18,6.18-3.2,9.3-.5,1.55-1,3.12-1.45,4.69a25.6,25.6,0,0,0-1.05,4.77,1,1,0,0,0,.09.51c.1.06.36.14.53.21l1.16.43,2.3.85,4.62,1.71,9.22,3.42,18.44,6.84Z" style="fill: rgb(38, 50, 56); transform-origin: 360.526px 283.65px;" id="elpg5kuhr8zp" class="animable"></path></g></g><path d="M364.74,393.12l-31.18-11.51-31.21-11.52c-3-1.09,38.45-104.15,42.32-114.66s36.28-35.09,38.47-41l9.6-26,21.34,7.88s-7.4,20-9.59,26,6.44,45.73,2.57,56.19S367.69,394.21,364.74,393.12Z" style="fill: #FFC100; transform-origin: 358.137px 290.779px;" id="elfjdqmcttyck" class="animable"></path><g id="el8tjaq9t2ikm"><g style="opacity: 0.1; transform-origin: 362.429px 300.708px;" class="animable" id="elalb4g840ywc"><path d="M389.68,315.08a3.51,3.51,0,1,0-1.5,4.74A3.53,3.53,0,0,0,389.68,315.08Z" id="elzu53rtnx7ai" class="animable" style="transform-origin: 386.564px 316.702px;"></path><path d="M398.79,233.54a3.51,3.51,0,1,0-1.49,4.73A3.51,3.51,0,0,0,398.79,233.54Z" id="elgwh4645gyd" class="animable" style="transform-origin: 395.675px 235.159px;"></path><path d="M394.32,303.82a2.48,2.48,0,1,0-1.05,3.34A2.47,2.47,0,0,0,394.32,303.82Z" id="elfaaect9insi" class="animable" style="transform-origin: 392.121px 304.963px;"></path><path d="M333.61,366.14a2.48,2.48,0,1,0-1.06,3.35A2.49,2.49,0,0,0,333.61,366.14Z" id="el7uqeb1opbs" class="animable" style="transform-origin: 331.409px 367.287px;"></path><path d="M353.55,264a2.48,2.48,0,1,0-1.06,3.34A2.48,2.48,0,0,0,353.55,264Z" id="elqyf12cwzry" class="animable" style="transform-origin: 351.347px 265.139px;"></path><path d="M378.32,313a1.75,1.75,0,1,0-.74,2.36A1.75,1.75,0,0,0,378.32,313Z" id="el0wd3m982na8c" class="animable" style="transform-origin: 376.769px 313.81px;"></path><path d="M329,358.37a1.76,1.76,0,1,0-.75,2.36A1.76,1.76,0,0,0,329,358.37Z" id="el38o12m8kj5h" class="animable" style="transform-origin: 327.433px 359.171px;"></path></g></g><g id="elyupb0jntgz"><rect x="393.33" y="163.49" width="38.49" height="8.05" style="fill: #FFC100; transform-origin: 412.575px 167.515px; transform: rotate(20.26deg);" class="animable" id="el5xwjifofqw6"></rect></g><g id="eltlg4u2pttud"><g style="opacity: 0.9; transform-origin: 412.337px 167.38px;" class="animable" id="elhulbx5ahgw"><g id="elbp7qleh8drl"><rect x="393.33" y="163.49" width="38.49" height="8.05" style="fill: rgb(255, 255, 255); transform-origin: 412.575px 167.515px; transform: rotate(20.26deg);" class="animable" id="el4txgqb18dt8"></rect></g><path d="M432,170.4l-18.22-6.48-9-3.24-9-3.28.45-.21-2.77,7.56-.22-.48,18,6.72c6,2.27,12,4.52,18,6.84l-.16.08Zm0,0-2.66,7.6-.05.11-.12,0c-6.05-2.12-12.08-4.32-18.12-6.48L393,165l-.35-.12.13-.36,2.81-7.54.12-.33.33.12,9.07,3.39,9,3.42Z" style="fill: rgb(38, 50, 56); transform-origin: 412.325px 167.38px;" id="elnntpywqnm4k" class="animable"></path></g></g><g id="elmokw37ihb5"><rect x="396.12" y="155.94" width="38.49" height="8.05" style="fill: #FFC100; transform-origin: 415.365px 159.965px; transform: rotate(20.26deg);" class="animable" id="elep21s0pa1ue"></rect></g><g id="elw29czztpl1"><g style="opacity: 0.9; transform-origin: 415.142px 159.835px;" class="animable" id="el67fzhth7ddg"><g id="elk83m8rj7zo9"><rect x="396.12" y="155.94" width="38.49" height="8.05" style="fill: rgb(255, 255, 255); transform-origin: 415.365px 159.965px; transform: rotate(20.26deg);" class="animable" id="elns0f8q5objk"></rect></g><path d="M434.81,162.85l-18.22-6.48-9-3.24-9-3.28.45-.2-2.76,7.55-.22-.48,18,6.72c6,2.27,12,4.52,18,6.84l-.17.08Zm0,0-2.67,7.6,0,.11-.12,0c-6.06-2.12-12.08-4.32-18.12-6.48l-18.07-6.62-.36-.12.14-.36,2.81-7.54.12-.33.33.12,9.07,3.39,9,3.42Z" style="fill: rgb(38, 50, 56); transform-origin: 415.14px 159.835px;" id="eltk9k0fwac6" class="animable"></path></g></g><g id="elatfqnxjnwg"><ellipse cx="351.64" cy="317.09" rx="38.34" ry="24.18" style="fill: rgb(255, 255, 255); transform-origin: 351.64px 317.09px; transform: rotate(-69.5777deg);" class="animable" id="elvyl7q8w7cos"></ellipse></g><g id="elih9qguegm1s"><rect x="381.85" y="198.47" width="32.91" height="15.46" style="fill: rgb(69, 90, 100); transform-origin: 398.305px 206.2px; transform: rotate(20.26deg);" class="animable" id="eloll19g44qbr"></rect></g><g id="elc2ojn8kyon"><rect x="316.56" y="306.49" width="80.22" height="24.92" style="fill: rgb(69, 90, 100); transform-origin: 356.67px 318.95px; transform: rotate(20.26deg);" class="animable" id="elktzvnt4mzoj"></rect></g><path d="M132.48,402.17,169,388.68l36.61-13.52c3.46-1.28-40.79-110.49-45.34-122.82S122.83,215.93,120.25,209s-16-43.37-16-43.37L73.39,177l16,43.37c2.57,7-6.79,46.73-2.26,59S129,403.45,132.48,402.17Z" style="fill: #FFC100; transform-origin: 139.596px 283.905px;" id="elsno7m9qz8q" class="animable"></path><g id="elq23yhqj9c1"><g style="opacity: 0.9; transform-origin: 139.454px 283.665px;" class="animable" id="el6ccztj4y4g"><path d="M132.48,402.17,169,388.68l36.61-13.52c3.46-1.28-40.79-110.49-45.34-122.82S122.83,215.93,120.25,209s-16-43.37-16-43.37L73.39,177l16,43.37c2.57,7-6.79,46.73-2.26,59S129,403.45,132.48,402.17Z" style="fill: rgb(255, 255, 255); transform-origin: 139.596px 283.905px;" id="el3w8bnu594ft" class="animable"></path><path d="M132.48,402.17l36.9-13.67,18.44-6.84,9.22-3.42,4.62-1.71,2.3-.85,1.16-.43c.17-.07.43-.15.53-.21a1,1,0,0,0,.09-.51,25.6,25.6,0,0,0-1.05-4.77c-.45-1.57-.95-3.14-1.45-4.69-1-3.12-2.1-6.21-3.2-9.3-2.2-6.18-4.49-12.32-6.81-18.46-4.63-12.27-9.39-24.49-14.18-36.69L164.58,264,161,254.87a33.27,33.27,0,0,0-1.91-4.49,31,31,0,0,0-2.72-4,135.26,135.26,0,0,0-13.52-14.2c-4.77-4.49-9.68-8.84-14.45-13.35a79.55,79.55,0,0,1-6.84-7.13,12.38,12.38,0,0,1-1.4-2.1c-.38-.8-.59-1.55-.9-2.32l-1.71-4.62-13.62-36.91.44.21L73.5,177.27l.18-.39,10.21,27.77L89,218.54l.63,1.74a8.84,8.84,0,0,1,.37,1.87,29.06,29.06,0,0,1,.06,3.73c-.09,2.48-.32,4.94-.58,7.39-1,9.82-2.54,19.58-3.18,29.41-.15,2.46-.25,4.92-.23,7.38a37.29,37.29,0,0,0,.7,7.32,25.41,25.41,0,0,0,1.1,3.51l1.22,3.49,2.41,7c6.4,18.67,12.77,37.34,19.32,56q4.91,13.95,10,27.85c1.71,4.63,3.45,9.25,5.26,13.83.91,2.3,1.83,4.58,2.81,6.84.5,1.14,1,2.26,1.54,3.37.28.55.56,1.1.87,1.63a7.85,7.85,0,0,0,.49.78C132,401.85,132.16,402.19,132.48,402.17Zm0,0c-.32,0-.51-.32-.7-.54s-.34-.51-.5-.77c-.31-.54-.59-1.08-.87-1.64-.54-1.1-1-2.23-1.54-3.36-1-2.26-1.92-4.54-2.84-6.83-1.82-4.59-3.57-9.2-5.29-13.82-3.44-9.25-6.77-18.54-10.07-27.83-6.59-18.6-13-37.26-19.45-55.91l-2.43-7L87.56,281a25.58,25.58,0,0,1-1.13-3.54,37.55,37.55,0,0,1-.72-7.39c0-2.47.06-4.94.21-7.41C86.54,252.8,88,243,89,233.22c.25-2.45.48-4.9.57-7.36a31.89,31.89,0,0,0-.07-3.66,8.48,8.48,0,0,0-.35-1.75l-.64-1.73-5.14-13.88L73.1,177.09l-.1-.29.28-.1,30.84-11.43.33-.12.12.32,13.63,36.91,1.7,4.62c.29.75.54,1.58.87,2.26a11.9,11.9,0,0,0,1.31,2,76.46,76.46,0,0,0,6.77,7.07c4.74,4.51,9.63,8.88,14.4,13.4A133.64,133.64,0,0,1,156.8,246a31.83,31.83,0,0,1,2.76,4.12,33.42,33.42,0,0,1,1.92,4.56l3.57,9.16,14.37,36.63c4.76,12.22,9.49,24.45,14.1,36.74,2.3,6.14,4.57,12.29,6.75,18.47,1.1,3.1,2.17,6.2,3.18,9.32.51,1.56,1,3.12,1.45,4.7a25.23,25.23,0,0,1,1,4.82,1,1,0,0,1-.15.66,3,3,0,0,1-.61.26l-1.15.42-2.31.85-4.61,1.7-9.24,3.39-18.46,6.79Z" style="fill: rgb(38, 50, 56); transform-origin: 139.454px 283.66px;" id="elvns9ic0qnn" class="animable"></path></g></g><path d="M135.26,393.12l31.18-11.51,31.21-11.52c2.95-1.09-38.45-104.15-42.33-114.66s-36.27-35.09-38.46-41l-9.6-26-21.34,7.88s7.4,20,9.59,26S89.07,268,92.94,278.46,132.31,394.21,135.26,393.12Z" style="fill: #FFC100; transform-origin: 141.86px 290.779px;" id="elow3ubnisyve" class="animable"></path><g id="el305n5ei3eck"><g style="opacity: 0.1; transform-origin: 137.571px 300.708px;" class="animable" id="elap9tr7p8syq"><path d="M110.32,315.08a3.51,3.51,0,1,1,1.5,4.74A3.53,3.53,0,0,1,110.32,315.08Z" id="elztqzc166nm" class="animable" style="transform-origin: 113.436px 316.702px;"></path><path d="M101.21,233.54a3.51,3.51,0,1,1,1.49,4.73A3.51,3.51,0,0,1,101.21,233.54Z" id="el7ny94zzmjsn" class="animable" style="transform-origin: 104.325px 235.159px;"></path><path d="M105.68,303.82a2.48,2.48,0,1,1,1,3.34A2.47,2.47,0,0,1,105.68,303.82Z" id="elxxoblovbp8" class="animable" style="transform-origin: 107.868px 304.984px;"></path><path d="M166.39,366.14a2.48,2.48,0,1,1,1.06,3.35A2.49,2.49,0,0,1,166.39,366.14Z" id="elt22bvbd1bls" class="animable" style="transform-origin: 168.591px 367.287px;"></path><path d="M146.45,264a2.48,2.48,0,1,1,1.06,3.34A2.48,2.48,0,0,1,146.45,264Z" id="elw9fph3wtodo" class="animable" style="transform-origin: 148.653px 265.139px;"></path><path d="M121.68,313a1.75,1.75,0,1,1,.74,2.36A1.75,1.75,0,0,1,121.68,313Z" id="el7rnm7c3gyc7" class="animable" style="transform-origin: 123.232px 313.81px;"></path><path d="M171,358.37a1.76,1.76,0,1,1,.75,2.36A1.76,1.76,0,0,1,171,358.37Z" id="el0536ei0e1oin" class="animable" style="transform-origin: 172.567px 359.171px;"></path></g></g><g id="el5incdstyuvv"><rect x="68.18" y="163.49" width="38.49" height="8.05" style="fill: #FFC100; transform-origin: 87.425px 167.515px; transform: rotate(159.74deg);" class="animable" id="elxdtau2fit4"></rect></g><g id="el2a11qvhei7r"><g style="opacity: 0.9; transform-origin: 87.6584px 167.36px;" class="animable" id="elcbupl2rzxxf"><g id="eljc6xzryadps"><rect x="68.18" y="163.49" width="38.49" height="8.05" style="fill: rgb(255, 255, 255); transform-origin: 87.425px 167.515px; transform: rotate(159.74deg);" class="animable" id="eldrymxlgl9kv"></rect></g><path d="M68,170.4l17.88-6.85,9-3.42,9.07-3.39.33-.12.12.33,2.81,7.54.13.36L107,165l-18.07,6.62c-6,2.16-12.07,4.36-18.12,6.48l-.12,0,0-.11Zm0,0,2.9,7.51-.16-.08c6-2.32,12-4.57,18-6.84l18-6.72-.22.48-2.77-7.56.45.21-9,3.28-9,3.24Z" style="fill: rgb(38, 50, 56); transform-origin: 87.67px 167.36px;" id="el0n07cmqjkos" class="animable"></path></g></g><g id="elehj3pvtpx2p"><rect x="65.39" y="155.94" width="38.49" height="8.05" style="fill: #FFC100; transform-origin: 84.635px 159.965px; transform: rotate(159.74deg);" class="animable" id="elob8e2nt5xh"></rect></g><g id="elav843nxx4r"><g style="opacity: 0.9; transform-origin: 84.8634px 159.775px;" class="animable" id="eljpf1tsfce6o"><g id="el1dodubzm9k9"><rect x="65.39" y="155.94" width="38.49" height="8.05" style="fill: rgb(255, 255, 255); transform-origin: 84.635px 159.965px; transform: rotate(159.74deg);" class="animable" id="ellt8t5t0veb"></rect></g><path d="M65.19,162.85,83.07,156l9-3.42,9.07-3.39.33-.12.12.33,2.81,7.54.14.36-.36.12L86.14,164c-6,2.16-12.06,4.36-18.12,6.48l-.12,0,0-.11Zm0,0,2.91,7.51-.17-.08c6-2.32,12-4.57,18-6.84l18-6.72-.22.48L101,149.65l.45.2-9,3.28-9,3.24Z" style="fill: rgb(38, 50, 56); transform-origin: 84.865px 159.775px;" id="eljx5jub2umi" class="animable"></path></g></g><g id="el1gq4dqfid7z"><ellipse cx="148.36" cy="317.09" rx="24.18" ry="38.34" style="fill: rgb(255, 255, 255); transform-origin: 148.36px 317.09px; transform: rotate(-20.26deg);" class="animable" id="elakn6vbygnx"></ellipse></g><g id="ellumugv7n20o"><rect x="85.24" y="198.47" width="32.91" height="15.46" style="fill: rgb(69, 90, 100); transform-origin: 101.695px 206.2px; transform: rotate(159.74deg);" class="animable" id="elezgcvqjzwjc"></rect></g><g id="el146zvd0wqkvq"><rect x="103.22" y="306.49" width="80.22" height="24.92" style="fill: rgb(69, 90, 100); transform-origin: 143.33px 318.95px; transform: rotate(159.74deg);" class="animable" id="elqtvgyxjo9ur"></rect></g></g><g id="freepik--Glass--inject-251" class="animable animator-active" style="transform-origin: 252.5px 229.027px;"><path d="M363,396.32H261.82l-119.57-.39,1.3-27.21,14.19,0v0l8.71-215.57L332,154l11.46,204.79a14,14,0,0,1,0,1.45l.46,8.46h17.33Z" style="fill: #FFC100; transform-origin: 252.625px 274.735px;" id="elzoaera8zyx" class="animable"></path><path d="M363,396.32H261.82l-119.57-.39,1.3-27.21,14.19,0v0l8.71-215.57H331.93l11.51,205.66a14,14,0,0,1,0,1.45l.46,8.46h17.33Z" style="fill: #FFC100; transform-origin: 252.625px 274.735px;" id="el3zkd17l9kj1" class="animable"></path><g id="elum4x9o2ozu9"><g style="opacity: 0.9; transform-origin: 252.5px 274.615px;" class="animable" id="elua54w7s3ojn"><path d="M363,396.32H261.82l-119.57-.39,1.3-27.21,14.19,0v0l8.71-215.57H331.93l11.51,205.66a14,14,0,0,1,0,1.45l.46,8.46h17.33Z" style="fill: rgb(255, 255, 255); transform-origin: 252.625px 274.735px;" id="eleulsze1vyvi" class="animable"></path><path d="M363,396.32l-110.39.15-110.38-.29H142v-.25l1.29-27.21v-.25h.25l14.19,0-.27.27,8.62-215.63v-.35h.35l165.48.09h.25l0,.26,5.74,103.55,2.85,51.78,2.78,51.79h0l.44,8.46-.07-.07,17.33,0h0v0Zm0,0-1.79-27.6,0,0-17.33,0h-.07v-.07l-.48-8.46h0L331.66,153.17l.27.25-165.48.09.36-.35L158,368.77V369h-.26L143.55,369l.26-.25-1.31,27.21-.25-.26,110.39.43Z" style="fill: rgb(38, 50, 56); transform-origin: 252.5px 274.615px;" id="elc2nqj7j8u9e" class="animable"></path></g></g><polygon points="183.54 169.46 315.15 169.94 324.15 366.88 177.59 366.39 183.54 169.46" style="fill: #FFC100; transform-origin: 250.87px 268.17px;" id="el3wjzvuocks" class="animable"></polygon><polygon points="157.74 368.77 143.55 368.72 157.74 368.72 157.74 368.77" style="fill: rgb(38, 50, 56); transform-origin: 150.645px 368.745px;" id="elai6ae4gcjnf" class="animable"></polygon><polygon points="261.82 396.32 142.23 396.32 142.25 395.93 261.82 396.32" style="fill: rgb(38, 50, 56); transform-origin: 202.025px 396.125px;" id="eljpdioqt3shc" class="animable"></polygon><g id="eligb9aror76"><polygon points="216.74 396.17 142.25 395.93 143.55 368.72 157.74 368.77 157.74 368.72 166.45 153.15 191.08 153.15 216.74 396.17" style="opacity: 0.1; transform-origin: 179.495px 274.66px;" class="animable" id="elg69oxukyu1t"></polygon></g><g id="elyvnd7lft5gk"><g style="opacity: 0.1; transform-origin: 252.194px 266.032px;" class="animable" id="eli7flal9rdm"><path d="M301.76,302a6,6,0,1,0-2.56,8.13A6,6,0,0,0,301.76,302Z" id="elk4k6aufkfo" class="animable" style="transform-origin: 296.452px 304.797px;"></path><path d="M310.32,183.28a6,6,0,1,0-2.56,8.12A6,6,0,0,0,310.32,183.28Z" id="elabxsx7kglc" class="animable" style="transform-origin: 305.007px 186.069px;"></path><path d="M309.73,282.68a4.26,4.26,0,1,0-1.81,5.74A4.26,4.26,0,0,0,309.73,282.68Z" id="elk3yp3g5mima" class="animable" style="transform-origin: 305.949px 284.643px;"></path><path d="M215.54,343.74a4.26,4.26,0,1,0,2.52,5.47A4.26,4.26,0,0,0,215.54,343.74Z" id="elnfb2d18hkk9" class="animable" style="transform-origin: 214.063px 347.736px;"></path><path d="M233.45,256.14a4.26,4.26,0,1,0-1.81,5.74A4.26,4.26,0,0,0,233.45,256.14Z" id="elfw1m1kz5ksc" class="animable" style="transform-origin: 229.669px 258.103px;"></path><path d="M282.27,298.38a3,3,0,1,0-1.28,4.06A3,3,0,0,0,282.27,298.38Z" id="el40m9jurjp0d" class="animable" style="transform-origin: 279.614px 299.774px;"></path><path d="M197.41,332.76a3,3,0,1,0,1.78,3.87A3,3,0,0,0,197.41,332.76Z" id="elqai9i5kl5u" class="animable" style="transform-origin: 196.381px 335.578px;"></path></g></g><g id="eli00z2i56qys"><polygon points="309.48 153.15 343.94 368.72 331.93 153.15 309.48 153.15" style="fill: rgb(255, 255, 255); opacity: 0.5; transform-origin: 326.71px 260.935px;" class="animable" id="ela25wxep1f7"></polygon></g><path d="M354.06,130.58v.09a23.48,23.48,0,0,1-23.58,23.4l-51-.18-.16,42.56a13.54,13.54,0,1,1-27.07-.1l0-17.81a4.4,4.4,0,0,0-4.47-4.49,4.44,4.44,0,0,0-4.47,3.91l-.12,33a21.31,21.31,0,1,1-42.62-.16l.21-57.16-31.45-.11A23.5,23.5,0,0,1,145.94,130v-.09a23.5,23.5,0,0,1,23.58-23.41l10,0a33.49,33.49,0,0,1,.84-7.28,31.76,31.76,0,0,1,24-23.8A32.11,32.11,0,0,1,235,84.89,44.17,44.17,0,0,1,317.9,107l12.75,0A23.5,23.5,0,0,1,354.06,130.58Z" style="fill: rgb(255, 255, 255); transform-origin: 250px 147.07px;" id="el6m02pm709jm" class="animable"></path><path d="M354.06,130.58a23.54,23.54,0,0,1-9.57,18.92,24.54,24.54,0,0,1-4.76,2.75c-.86.31-1.72.66-2.6.91a22.53,22.53,0,0,1-2.68.6l-1.36.2c-.46.07-.92.06-1.38.09-.92.06-1.83.07-2.75,0h-5.5l-44-.11.09-.09L279.47,183c0,4.86,0,9.7-.09,14.57A13.68,13.68,0,0,1,264,210a14.56,14.56,0,0,1-3.55-.95,14,14,0,0,1-3.16-1.86,13.62,13.62,0,0,1-2.56-2.64,12.73,12.73,0,0,1-1.77-3.21,13.76,13.76,0,0,1-.86-3.58c-.09-1.23-.07-2.44-.07-3.65l0-14.56a11.57,11.57,0,0,0-.07-1.78,4.46,4.46,0,0,0-.62-1.61,4.15,4.15,0,0,0-2.84-1.82,4.39,4.39,0,0,0-3.3.76,4.27,4.27,0,0,0-1.7,2.91v0l0,19.63,0,9.82c0,1.64,0,3.26-.09,4.92a22.4,22.4,0,0,1-.87,4.88,21.67,21.67,0,0,1-23,15.11,22.12,22.12,0,0,1-9.29-3.3,21.61,21.61,0,0,1-9.87-16.48c-.12-1.67-.08-3.29-.08-4.93l0-4.91,0-9.81.11-39.27.37.37L172,153.86a36.08,36.08,0,0,1-7.24-.48,25.73,25.73,0,0,1-6.83-2.51,24,24,0,0,1-9.87-10.44,25.93,25.93,0,0,1-1.36-3.38,27.24,27.24,0,0,1-.78-3.56,22.11,22.11,0,0,1,.06-7.26,22.12,22.12,0,0,1,2.23-6.91,24,24,0,0,1,4.22-5.91,25.49,25.49,0,0,1,5.8-4.36,24.9,24.9,0,0,1,6.85-2.39,36.56,36.56,0,0,1,7.23-.4l7.2,0-.25.25a33.59,33.59,0,0,1,1.43-9.5,31.43,31.43,0,0,1,4.19-8.64,32.38,32.38,0,0,1,14.88-11.79,33.06,33.06,0,0,1,18.93-1.32,32.38,32.38,0,0,1,16.43,9.47l-.28,0A44.27,44.27,0,0,1,318,107l-.05,0,12.39.06a24,24,0,0,1,11.87,3.09,24.88,24.88,0,0,1,4.93,3.73,23.61,23.61,0,0,1,3.77,4.9l.4.66.33.7.67,1.4a25.28,25.28,0,0,1,1,2.94A24.27,24.27,0,0,1,354.06,130.58Zm0,0a24.28,24.28,0,0,0-.84-6.12,25.18,25.18,0,0,0-1-2.93l-.67-1.4-.33-.7-.4-.66a23.53,23.53,0,0,0-3.78-4.88,25.06,25.06,0,0,0-4.92-3.72,23.86,23.86,0,0,0-11.85-3l-12.39,0h0v0A44,44,0,0,0,285.1,63.52a43.94,43.94,0,0,0-50,21.45l-.11.22-.17-.18a31.89,31.89,0,0,0-16.25-9.33A32.7,32.7,0,0,0,199.9,77a31.88,31.88,0,0,0-14.64,11.65,30.8,30.8,0,0,0-4.12,8.52,33.72,33.72,0,0,0-1.39,9.36v.26h-.25l-7.2,0a36.74,36.74,0,0,0-7.13.41,24.75,24.75,0,0,0-6.69,2.34,25.12,25.12,0,0,0-5.65,4.28,23.23,23.23,0,0,0-4.11,5.77,22,22,0,0,0-2.16,6.74,26.29,26.29,0,0,0-.31,3.54,24.71,24.71,0,0,0,.27,3.54,25.4,25.4,0,0,0,.76,3.46,24.91,24.91,0,0,0,1.34,3.29,23.27,23.27,0,0,0,9.62,10.14,24.7,24.7,0,0,0,6.65,2.43,35.62,35.62,0,0,0,7.1.45l28.81.08h.38v.37L201,192.89l-.05,9.81,0,4.91c0,1.64,0,3.28.06,4.88a21,21,0,0,0,9.57,16,20.81,20.81,0,0,0,18.57,2.08A21.12,21.12,0,0,0,242,217.06a21.35,21.35,0,0,0,.87-4.76c.13-1.61.06-3.26.09-4.89l.05-9.82.09-19.63h0v0a4.68,4.68,0,0,1,1.88-3.19,4.78,4.78,0,0,1,3.61-.82,4.53,4.53,0,0,1,3.78,3.76,10.56,10.56,0,0,1,.07,1.85l0,14.56c0,1.21,0,2.43.05,3.62a13.91,13.91,0,0,0,.83,3.48,13.59,13.59,0,0,0,4.21,5.71,13.37,13.37,0,0,0,21.59-9.35c.14-4.83.08-9.7.13-14.55l.14-29.11v-.09h.09l44,.2,5.5,0c.92,0,1.83,0,2.75,0,.45,0,.91,0,1.37-.09l1.36-.2a22.33,22.33,0,0,0,2.67-.59c.88-.25,1.74-.59,2.6-.91a24,24,0,0,0,4.75-2.72A23.54,23.54,0,0,0,354.06,130.58Z" style="fill: rgb(38, 50, 56); transform-origin: 249.855px 147.039px;" id="eldeif36yokq7" class="animable"></path><path d="M175.63,126a9.52,9.52,0,1,1-9.48-9.55A9.52,9.52,0,0,1,175.63,126Z" style="fill: rgb(235, 235, 235); transform-origin: 166.11px 125.97px;" id="el0zpfhi4zrrvb" class="animable"></path><path d="M218.73,212.05a5.83,5.83,0,1,1-5.81-5.85A5.83,5.83,0,0,1,218.73,212.05Z" style="fill: rgb(235, 235, 235); transform-origin: 212.9px 212.03px;" id="el2xlsfc6y6m9" class="animable"></path><path d="M337.55,143.25a6,6,0,0,1-6.22,5.81,5.91,5.91,0,0,1-6.07-5.85,6.09,6.09,0,0,1,6.22-5.81A6,6,0,0,1,337.55,143.25Z" style="fill: rgb(235, 235, 235); transform-origin: 331.405px 143.231px;" id="el1vo9ceqh880i" class="animable"></path><path d="M192.39,138.77a6,6,0,0,1-6.22,5.8,5.91,5.91,0,0,1-6.07-5.85,6.08,6.08,0,0,1,6.22-5.8A5.94,5.94,0,0,1,192.39,138.77Z" style="fill: rgb(235, 235, 235); transform-origin: 186.245px 138.746px;" id="elxk5ddnb7nv" class="animable"></path><path d="M224.32,223.76a3,3,0,0,1-3.11,2.9,3,3,0,0,1-3-2.92,3.05,3.05,0,0,1,3.11-2.91A3,3,0,0,1,224.32,223.76Z" style="fill: rgb(235, 235, 235); transform-origin: 221.265px 223.746px;" id="el9fa49g9hbdd" class="animable"></path><path d="M273,198.82a3,3,0,0,1-3.11,2.91,3,3,0,0,1-3-2.93,3,3,0,0,1,3.11-2.9A3,3,0,0,1,273,198.82Z" style="fill: rgb(235, 235, 235); transform-origin: 269.945px 198.815px;" id="elq59w3qouwjg" class="animable"></path></g><g id="freepik--text-2--inject-251" class="animable animator-hidden" style="transform-origin: 250px 416.021px;"><path d="M76,472.83l3.54-1.63c1.46-.64,2.88-1.28,4.41-1.92,3-1.27,6.09-2.52,9.21-3.72,6.24-2.45,12.68-4.69,19.15-6.85,13-4.25,26.23-7.94,39.62-11-4-.9-7.94-1.6-12-2.35-12.49-2.26-25.25-4-38.2-5.23l-9.49-27.88-1.55-4.56c-6.6,2.21-13.14,4.66-19.67,7.19-3.26,1.3-6.51,2.62-9.77,4L56.38,421c-1.69.77-3.19,1.45-5.14,2.41a55,55,0,0,1,6.84,2.11,326.71,326.71,0,0,1,31,13.29A250.07,250.07,0,0,0,77,466.74l-.8,3.18c-.11.52-.18,1-.26,1.54l-.12.76A4.31,4.31,0,0,0,76,472.83Z" style="fill: rgb(55, 71, 79); transform-origin: 101.585px 440.26px;" id="elig7yltj7zae" class="animable"></path><path d="M82.93,384.79l1.91,5.59,14.85,43.68,2.06,6A482.28,482.28,0,0,1,192.42,419c42.26-5.52,85.21-5.36,127.06,1.37a406.9,406.9,0,0,1,78.73,20.87l2.26-6,16.34-43.14,2.09-5.53a466.78,466.78,0,0,0-90.17-23.92,499.89,499.89,0,0,0-144-1.59A540,540,0,0,0,82.93,384.79Z" style="fill: rgb(69, 90, 100); transform-origin: 250.915px 398.926px;" id="el4nzcrkqqytf" class="animable"></path><path d="M410.83,440.47c10.21-4.67,20.55-8.52,31.38-12.35l6.55-2.27-19-8.8-19.42-7.88-1.7,4.5-10.43,27.54q-9.78.77-19.22,1.62c-6.37.83-12.64,1.71-18.79,2.6-4,.71-8,1.48-11.87,2.23a386.3,386.3,0,0,1,76,27.77l-1.91-6.51C419,459.51,415.21,449.75,410.83,440.47Z" style="fill: rgb(55, 71, 79); transform-origin: 398.545px 442.3px;" id="elusu1icay9ge" class="animable"></path><path d="M386.41,437c-5.36-2-10.91-3.53-16.39-5.23s-11-3.1-16.6-4.53l-3.73,15-1.36,5.43c4-.76,8.09-1.58,12.19-2.28l12.36-1.73,6.28-.83,6.28-.56,12.77-1.05Z" style="fill: rgb(38, 50, 56); transform-origin: 373.27px 437.455px;" id="elbvy4ohm1seh" class="animable"></path><path d="M101.75,440.1a430.81,430.81,0,0,1,50.16,7.58l-1.26-5.46-3.47-15c-11.26,2.62-22.45,5.57-33.47,9C109.72,437.49,105.69,438.7,101.75,440.1Z" style="fill: rgb(38, 50, 56); transform-origin: 126.83px 437.45px;" id="el8xby1ddfm6m" class="animable"></path><path d="M121,403.38l0-.08a6.08,6.08,0,0,1,11.74-3.2l0,.08a6.08,6.08,0,0,1-11.74,3.2Z" style="fill: rgb(255, 255, 255); transform-origin: 126.87px 401.74px;" id="el2j2of645bs" class="animable"></path><path d="M155.77,407.88,151,383a2.37,2.37,0,0,1,1.89-2.77l.12,0h0l5.84-1.11a8.17,8.17,0,0,1,8.86,11.63,9.2,9.2,0,0,1-1.6,17.63l-7.48,1.42a0,0,0,0,1,0,0c-.08,0-.07.06-.12.07A2.39,2.39,0,0,1,155.77,407.88Zm1.69-16.7,3.63-.69a3.46,3.46,0,0,0,2.69-4.06,3.38,3.38,0,0,0-4-2.7l-3.64.69ZM160,404.62l5.28-1a4.45,4.45,0,0,0-1.66-8.74l-5.28,1Z" style="fill: rgb(255, 255, 255); transform-origin: 162.285px 394.438px;" id="el6pzcb92r3ye" class="animable"></path><path d="M180.65,403.39l-3.41-25.14a2.34,2.34,0,0,1,2-2.67h.13l13.8-1.87a2.39,2.39,0,0,1,2.67,2,2.43,2.43,0,0,1-2,2.7L182.3,380l1,7.8,9.93-1.34a2.39,2.39,0,0,1,.64,4.73L184,392.52l1.06,7.84,11.55-1.56a2.39,2.39,0,0,1,.64,4.73l-13.81,1.87c-.08,0-.09,0-.09,0l0,.05A2.35,2.35,0,0,1,180.65,403.39Z" style="fill: rgb(255, 255, 255); transform-origin: 188.203px 389.584px;" id="elnxadoo533b" class="animable"></path><path d="M205.66,400.24,203.6,375a2.33,2.33,0,0,1,2.17-2.55h.13l13.88-1.14a2.39,2.39,0,0,1,2.55,2.17,2.42,2.42,0,0,1-2.16,2.59l-11.61.95.63,7.84,10-.81a2.39,2.39,0,0,1,.39,4.76l-10,.81.65,7.89,11.61-.95a2.39,2.39,0,0,1,.39,4.76l-13.89,1.13c-.08,0-.09,0-.09,0l0,0A2.36,2.36,0,0,1,205.66,400.24Z" style="fill: rgb(255, 255, 255); transform-origin: 213.958px 386.883px;" id="el2itcnvbi47k" class="animable"></path><path d="M251.55,396.69a2.38,2.38,0,0,1-1.43,3.05,4.35,4.35,0,0,1-1,.15h0a3.15,3.15,0,0,1-1.69-.43A4.36,4.36,0,0,1,246,398a11.47,11.47,0,0,1-1-5.13,3.74,3.74,0,0,0-.56-1.84,4,4,0,0,0-1.32-1.21,8.1,8.1,0,0,0-2.44-1l-5.07.12.22,9.33a2.39,2.39,0,0,1-4.77.11l-.6-25.36a2.34,2.34,0,0,1,2.31-2.42h0l7.65-.18a9.2,9.2,0,0,1,6.24,16.15,7.08,7.08,0,0,1,1.54,1.55,8.22,8.22,0,0,1,1.53,4.61,10.2,10.2,0,0,0,.23,2.53A2.35,2.35,0,0,1,251.55,396.69Zm-6.43-17.14a4.43,4.43,0,0,0-4.53-4.36l-5.29.12.21,8.86,5.29-.13A4.4,4.4,0,0,0,245.12,379.55Z" style="fill: rgb(255, 255, 255); transform-origin: 241.076px 385.494px;" id="elmtiw9l2ppup" class="animable"></path><path d="M271,398.31,272.72,373a2.33,2.33,0,0,1,2.52-2.19l5.07.35a15,15,0,0,1-2.08,30l-5.06-.35A2.35,2.35,0,0,1,271,398.31Zm4.92-2.07,2.66.18a10.27,10.27,0,0,0,1.42-20.5l-2.66-.19Z" style="fill: rgb(255, 255, 255); transform-origin: 282.65px 385.999px;" id="elyyavcrfcwri" class="animable"></path><path d="M314.55,397.75l-10.36-1.36-2.82,5.27a2.4,2.4,0,0,1-2.41,1.2,2.35,2.35,0,0,1-1.8-3.49l12.71-23.87a2.41,2.41,0,0,1,2.46-1.2,2.36,2.36,0,0,1,2.06,1.79l6.14,26.34a2.45,2.45,0,0,1-1.81,2.89,2.27,2.27,0,0,1-.83,0,2.31,2.31,0,0,1-2-1.78Zm-1.14-4.92-2.25-9.62-4.65,8.71Z" style="fill: rgb(255, 255, 255); transform-origin: 308.721px 389.816px;" id="elne2a9k0x0yb" class="animable"></path><path d="M347.73,384.37l-10.9,10.24L334.67,406a2.32,2.32,0,0,1-2.76,1.88,2.39,2.39,0,0,1-1.89-2.76l2.16-11.41-6.34-13.49a2.26,2.26,0,0,1,1.08-3.12,2.29,2.29,0,0,1,3.11,1.11l5.36,11.25,9.09-8.52a2.36,2.36,0,0,1,3.25,3.41Z" style="fill: rgb(255, 255, 255); transform-origin: 336.968px 392.394px;" id="el8jhg4w6o1vc" class="animable"></path><path d="M364.05,399.77l0-.08a6.08,6.08,0,0,1,11.71,3.3l0,.08a6.08,6.08,0,0,1-11.71-3.3Z" style="fill: rgb(255, 255, 255); transform-origin: 369.905px 401.38px;" id="elp1bppudnh2l" class="animable"></path></g><g id="freepik--text-1--inject-251" class="animable animator-hidden" style="transform-origin: 249.347px 53.9566px;"><path d="M172.56,55a1.06,1.06,0,0,1,.75-1.33,1.09,1.09,0,0,1,1.4.64c1.35,4.27,2,6.4,3.36,10.66a1.07,1.07,0,0,1-.72,1.32,1,1,0,0,1-1.34-.66Z" style="fill: rgb(38, 50, 56); transform-origin: 175.314px 59.9827px;" id="elj5hkz2k707q" class="animable"></path><path d="M183.61,63.28a1.06,1.06,0,0,1-2,.6l-3.15-10.55h0a1,1,0,0,1,.18-1,1.18,1.18,0,0,1,1.55-.22c3.48,2.52,5.18,3.81,8.49,6.44-.79-3-1.18-4.53-2-7.55a1.07,1.07,0,0,1,.81-1.26,1.09,1.09,0,0,1,1.34.71l2.7,10.67a1.06,1.06,0,0,1-.78,1.27,1,1,0,0,1-.86-.16.41.41,0,0,1-.12-.09c-3.26-2.63-4.92-3.91-8.32-6.43Z" style="fill: rgb(38, 50, 56); transform-origin: 184.978px 57.0807px;" id="elr1dymh4fpy" class="animable"></path><path d="M202,48.42c-1.26.24-1.88.37-3.14.64.84,4,1.25,5.94,2.09,9.89a1.06,1.06,0,0,1-2.08.45c-.87-3.95-1.31-5.92-2.18-9.87-1.25.27-1.87.41-3.11.7a1.09,1.09,0,0,1-1.33-.78,1.08,1.08,0,0,1,.85-1.27c3.39-.79,5.09-1.15,8.5-1.83a1.08,1.08,0,0,1,1.29.81A1.11,1.11,0,0,1,202,48.42Z" style="fill: rgb(38, 50, 56); transform-origin: 197.566px 53.2804px;" id="elgkiy09pslm" class="animable"></path><path d="M208.13,57.55c-.79-4.4-1.19-6.6-2-11a1.06,1.06,0,0,1,.92-1.22h.06c2.59-.45,3.89-.66,6.49-1a1.08,1.08,0,0,1,1.25.87,1.11,1.11,0,0,1-.94,1.21c-2.16.32-3.24.49-5.39.86l.58,3.41c1.83-.31,2.74-.45,4.57-.73A1.05,1.05,0,1,1,214,52c-1.82.27-2.72.42-4.53.73l.58,3.43c2.08-.35,3.12-.52,5.2-.83a1.08,1.08,0,0,1,1.2.9,1.06,1.06,0,0,1-.89,1.18c-2.47.37-3.7.57-6.16,1,0,0,0,0,0,0l0,0A1,1,0,0,1,208.13,57.55Z" style="fill: rgb(38, 50, 56); transform-origin: 211.287px 51.3811px;" id="elj7flxose15a" class="animable"></path><path d="M228.66,54.23a1,1,0,0,1-.55,1.38,2,2,0,0,1-.41.1h0a1.45,1.45,0,0,1-.77-.14,1.91,1.91,0,0,1-.68-.59,5.44,5.44,0,0,1-.64-2.22,1.6,1.6,0,0,0-.32-.79,1.89,1.89,0,0,0-.64-.48,3.52,3.52,0,0,0-1.14-.33c-.92.1-1.38.15-2.3.27l.5,4.08a1.07,1.07,0,0,1-.95,1.16,1,1,0,0,1-1.18-.9l-1.45-11.08a1.06,1.06,0,0,1,1-1.17h0c1.43-.18,2.15-.27,3.58-.43a4.14,4.14,0,0,1,4.7,3.61,4,4,0,0,1-1.23,3.24,2.77,2.77,0,0,1,.75.63,3.37,3.37,0,0,1,.84,2,5.76,5.76,0,0,0,.18,1.11A1,1,0,0,1,228.66,54.23Zm-3.48-7.31a2,2,0,0,0-2.26-1.74l-2.46.29c.19,1.54.28,2.32.47,3.87,1-.12,1.45-.18,2.42-.28A2,2,0,0,0,225.18,46.92Z" style="fill: rgb(38, 50, 56); transform-origin: 223.444px 49.8674px;" id="elp59u4izvhvo" class="animable"></path><path d="M233.93,54.33a1.05,1.05,0,0,1-1,1.11,1,1,0,0,1-1.13-1c-.35-4.38-.53-6.58-.88-11v0a1,1,0,0,1,.38-.9,1.16,1.16,0,0,1,1.55.11c2.84,3.2,4.22,4.81,6.9,8.08-.14-3.12-.22-4.68-.36-7.8a1.07,1.07,0,0,1,1-1.07,1.09,1.09,0,0,1,1.15,1c.16,4.4.24,6.6.41,11A1.06,1.06,0,0,1,241,55a1.07,1.07,0,0,1-.8-.34l-.1-.11c-2.62-3.25-4-4.86-6.74-8Z" style="fill: rgb(38, 50, 56); transform-origin: 236.434px 48.6533px;" id="elg9iqxhexb4" class="animable"></path><path d="M253.56,51.65c-1.89,0-2.84,0-4.73,0-.37,1-.55,1.48-.92,2.47a1.08,1.08,0,0,1-1,.68,1.36,1.36,0,0,1-.36,0,1.06,1.06,0,0,1-.66-1.35c1.61-4.5,2.45-6.74,4.22-11.21a1.19,1.19,0,0,1,2.14,0c1.76,4.47,2.6,6.71,4.21,11.21a1.07,1.07,0,0,1-.66,1.35,1.09,1.09,0,0,1-1.34-.63C254.11,53.13,253.93,52.64,253.56,51.65Zm-.79-2.09c-.62-1.63-.94-2.45-1.58-4.08-.65,1.63-1,2.44-1.59,4.08C250.87,49.55,251.5,49.55,252.77,49.56Z" style="fill: rgb(38, 50, 56); transform-origin: 251.174px 48.2109px;" id="eld1i0t0483q" class="animable"></path><path d="M266,44l-3.19-.16c-.19,4-.28,6.06-.47,10.1a1,1,0,0,1-1.1,1,1,1,0,0,1-1-1.08c.15-4,.22-6.06.38-10.11l-3.17-.1a1.05,1.05,0,1,1,.05-2.1c3.45.09,5.18.16,8.63.37a1.07,1.07,0,0,1,1.05,1.1A1.1,1.1,0,0,1,266,44Z" style="fill: rgb(38, 50, 56); transform-origin: 261.803px 48.2474px;" id="elfc8192fusit" class="animable"></path><path d="M270.64,43.3a1,1,0,0,1,1.19-.95,1.09,1.09,0,0,1,1,1.13c-.38,4.45-.58,6.68-1,11.13a1.06,1.06,0,0,1-1.16,1,1,1,0,0,1-1-1.12C270.12,50,270.29,47.75,270.64,43.3Z" style="fill: rgb(38, 50, 56); transform-origin: 271.247px 48.9733px;" id="elcxy4z48jl86" class="animable"></path><path d="M287.6,45.79a6.8,6.8,0,0,1,1.28,5,7,7,0,0,1-2.66,4.45,6.69,6.69,0,0,1-4.85,1.38,6.78,6.78,0,0,1-4.46-2.56,7,7,0,0,1-1.44-5,6.69,6.69,0,0,1,2.45-4.57,6.88,6.88,0,0,1,5.16-1.44A6.75,6.75,0,0,1,287.6,45.79Zm-1,4.71a4.71,4.71,0,0,0-.87-3.48,4.42,4.42,0,0,0-3-1.75,4.48,4.48,0,0,0-3.39.95,4.73,4.73,0,0,0-.74,6.57,4.46,4.46,0,0,0,3,1.73,4.37,4.37,0,0,0,3.23-1A4.79,4.79,0,0,0,286.65,50.5Z" style="fill: rgb(38, 50, 56); transform-origin: 282.19px 49.8269px;" id="elc8lqx8l3huc" class="animable"></path><path d="M293.36,57.42a1.05,1.05,0,0,1-2.08-.35l1.82-10.86v0a1,1,0,0,1,.58-.78,1.18,1.18,0,0,1,1.48.48c2,3.79,2.95,5.7,4.76,9.52l1.55-7.65a1.05,1.05,0,0,1,1.27-.78,1.09,1.09,0,0,1,.89,1.23L301.36,59a1,1,0,0,1-1.95.28.56.56,0,0,1-.07-.13c-1.76-3.79-2.68-5.68-4.61-9.44C294.18,52.78,293.91,54.33,293.36,57.42Z" style="fill: rgb(38, 50, 56); transform-origin: 297.454px 52.6516px;" id="elnbqdsq76dmg" class="animable"></path><path d="M313.15,59.62c-1.84-.48-2.76-.71-4.61-1.16-.61.87-.91,1.31-1.5,2.18a1.09,1.09,0,0,1-1.13.41,1.07,1.07,0,0,1-.35-.14,1.06,1.06,0,0,1-.31-1.47c2.66-4,4-5.94,6.85-9.84a1.17,1.17,0,0,1,1.2-.38,1.18,1.18,0,0,1,.89.91c.63,4.77.91,7.15,1.39,11.91a1.08,1.08,0,0,1-1,1.15,1,1,0,0,1-.37,0,1,1,0,0,1-.78-.89C313.33,61.2,313.28,60.67,313.15,59.62Zm-.25-2.22c-.22-1.73-.33-2.6-.56-4.34-1,1.42-1.54,2.13-2.55,3.56Z" style="fill: rgb(38, 50, 56); transform-origin: 310.33px 56.1938px;" id="elvndb2bjyfx" class="animable"></path><path d="M318,63.12c1.23-4.29,1.85-6.44,3.08-10.74a1.08,1.08,0,0,1,1.37-.69,1.1,1.1,0,0,1,.8,1.32l-2.87,9.7c2,.6,3,.92,5.06,1.56a1.05,1.05,0,1,1-.64,2c-2.39-.76-3.6-1.13-6-1.83h-.05A1.05,1.05,0,0,1,318,63.12Z" style="fill: rgb(38, 50, 56); transform-origin: 322.068px 58.9786px;" id="el1tzkwxip452" class="animable"></path></g><defs>     <filter id="active" height="200%">         <feMorphology in="SourceAlpha" result="DILATED" operator="dilate" radius="2"></feMorphology>                <feFlood flood-color="#32DFEC" flood-opacity="1" result="PINK"></feFlood>        <feComposite in="PINK" in2="DILATED" operator="in" result="OUTLINE"></feComposite>        <feMerge>            <feMergeNode in="OUTLINE"></feMergeNode>            <feMergeNode in="SourceGraphic"></feMergeNode>        </feMerge>    </filter>    <filter id="hover" height="200%">        <feMorphology in="SourceAlpha" result="DILATED" operator="dilate" radius="2"></feMorphology>                <feFlood flood-color="#ff0000" flood-opacity="0.5" result="PINK"></feFlood>        <feComposite in="PINK" in2="DILATED" operator="in" result="OUTLINE"></feComposite>        <feMerge>            <feMergeNode in="OUTLINE"></feMergeNode>            <feMergeNode in="SourceGraphic"></feMergeNode>        </feMerge>            <feColorMatrix type="matrix" values="0   0   0   0   0                0   1   0   0   0                0   0   0   0   0                0   0   0   1   0 "></feColorMatrix>    </filter></defs></svg>